<?xml version="1.0" standalone="no"?>
<!DOCTYPE svg PUBLIC "-//W3C//DTD SVG 1.1//EN" "http://www.w3.org/Graphics/SVG/1.1/DTD/svg11.dtd" >
<svg xmlns="http://www.w3.org/2000/svg">
<metadata>Generated by IcoMoon</metadata>
<defs>
<font id="icomoon" horiz-adv-x="1024">
<font-face units-per-em="1024" ascent="960" descent="-64" />
<missing-glyph horiz-adv-x="1024" />
<glyph unicode="&#x20;" horiz-adv-x="512" d="" />
<glyph unicode="&#xe900;" glyph-name="forwarded" d="M490 392.4h117.2v-124.4c0-29.2 22-58.8 58.8-58.8 29.2 0 44.4 22 58.8 36.4l263.2 270.4c22 22 36.4 29.2 36.4 58.8 0 29.2-14.4 36.4-36.4 58.8l-263.2 270.4c-14.8 14.4-29.2 36.4-58.8 36.4s-58.8-29.2-65.6-58.8v-116.8c-600.4 0-600.4-775.2-600.4-775.2 0-6 1.2-12.4 3.2-18.4 38.8 134 240.4 421.2 486.8 421.2z" />
<glyph unicode="&#xe901;" glyph-name="replied" d="M534 392.4h-117.2v-124.4c0-29.2-22-58.8-58.8-58.8-29.2 0-44.4 22-58.8 36.4l-262.8 270.4c-22 22.4-36.4 29.6-36.4 58.8s14.4 36.4 36.4 58.8l263.2 270.4c14.8 14.4 29.2 36.4 58.8 36.4 29.2 0 58.8-29.2 65.6-58.8v-116.8c600 0 600-775.2 600-775.2 0-6-1.2-12.4-3.2-18.4-38.8 134-240.4 421.2-486.8 421.2z" />
<glyph unicode="&#xe902;" glyph-name="double-arrow-right" d="M907.636 445.673c2.327-11.636 0-23.273-9.309-32.582l-449.164-444.509c-13.964-11.636-32.582-11.636-46.545 0-11.636 11.636-11.636 32.582 0 46.545l430.545 432.873-428.218 432.873c-11.636 13.964-11.636 32.582 0 46.545 11.636 11.636 32.582 11.636 46.545 0l449.164-449.164c9.309-9.309 11.636-20.945 6.982-32.582zM628.364 445.673c2.327-11.636 0-23.273-9.309-32.582l-449.164-444.509c-13.964-11.636-32.582-11.636-46.545 0-11.636 11.636-11.636 32.582 0 46.545l430.545 432.873-428.218 432.873c-11.636 13.964-11.636 32.582 0 46.545 11.636 11.636 32.582 11.636 46.545 0l449.164-449.164c9.309-9.309 11.636-20.945 6.982-32.582z" />
<glyph unicode="&#xe903;" glyph-name="double-arrow-left" d="M116.364 450.327c-2.327 11.636 0 23.273 9.309 32.582l449.164 444.509c13.964 11.636 32.582 11.636 46.545 0 11.636-11.636 11.636-32.582 0-46.545l-430.545-432.873 428.218-432.873c11.636-13.964 11.636-32.582 0-46.545-11.636-11.636-32.582-11.636-46.545 0l-449.164 449.164c-9.309 9.309-11.636 20.945-6.982 32.582zM395.636 450.327c-2.327 11.636 0 23.273 9.309 32.582l449.164 444.509c13.964 11.636 32.582 11.636 46.545 0 11.636-11.636 11.636-32.582 0-46.545l-430.545-432.873 428.218-432.873c11.636-13.964 11.636-32.582 0-46.545-11.636-11.636-32.582-11.636-46.545 0l-449.164 449.164c-9.309 9.309-11.636 20.945-6.982 32.582z" />
<glyph unicode="&#xe904;" glyph-name="contacts" d="M31.030 913.455v-930.909c0-25.755 20.79-46.545 46.545-46.545h620.606c111.088 0 201.697 90.608 201.697 201.697v46.545h46.545c25.755 0 46.545 20.79 46.545 46.545s-20.79 46.545-46.545 46.545h-46.545v124.121h46.545c25.755 0 46.545 20.79 46.545 46.545s-20.79 46.545-46.545 46.545h-46.545v124.121h46.545c25.755 0 46.545 20.79 46.545 46.545s-20.79 46.545-46.545 46.545h-46.545v46.545c0 111.088-90.608 201.697-201.697 201.697h-620.606c-25.755 0-46.545-20.79-46.545-46.545zM124.121 866.909h574.061c59.888 0 108.606-48.718 108.606-108.606v-620.606c0-59.888-48.718-108.606-108.606-108.606h-574.061v837.818zM605.091 556.606c0-77.119-62.517-139.636-139.636-139.636s-139.636 62.517-139.636 139.636c0 77.119 62.517 139.636 139.636 139.636s139.636-62.517 139.636-139.636zM248.242 199.758h434.424c0 120.087-97.125 217.212-217.212 217.212s-217.212-97.125-217.212-217.212z" />
<glyph unicode="&#xe905;" glyph-name="add-template" d="M760 960h-555.6c-34 0-60-26-60-60v-760c0-34 26-60 60-60h759.6c34 0 60 26 60 60v600l-264 220zM926.4 177.6h-684.8l-1.2 686.4h464v-174c0-8 4-16 8-22 6-6 12-8 22-8h192v-482.4zM113.6 718.4h-113.6v-782.4h873.2v113.6h-759.6zM754 574h-144.4v144.4h-113.6v-144.4h-144.4v-113.6h144.4v-144.4h113.6v144.4h144.4z" />
<glyph unicode="&#xe906;" glyph-name="mail-space" d="M121.119 610.016h679.525c66.782 0 121.119 54.334 121.119 121.119s-54.337 121.119-121.119 121.119h-679.525c-66.785 0-121.119-54.334-121.119-121.119s54.334-121.119 121.119-121.119zM747.163 771.246c22.116 0 40.111-17.995 40.111-40.111s-17.995-40.111-40.111-40.111c-22.116 0-40.111 17.995-40.111 40.111s17.995 40.111 40.111 40.111zM146.287 762.595h110.108c17.347 0 31.459-14.113 31.459-31.459s-14.113-31.459-31.459-31.459h-110.108c-17.347 0-31.459 14.113-31.459 31.459s14.113 31.459 31.459 31.459zM121.119 326.881h425.354c-3.011 5.411-5.436 11.193-7.151 17.303-5.738 20.471-3.162 41.945 7.264 60.478l32.476 57.889c14.116 25.080 40.69 40.611 69.387 40.611 8.192 0 16.34-1.277 24.117-3.753 6.503 4.247 13.21 8.179 20.087 11.775 5.465 26.53 24.205 48.224 48.916 57.936h-620.45c-66.785 0-121.119-54.334-121.119-121.119s54.334-121.119 121.119-121.119zM146.287 479.459h110.108c17.347 0 31.459-14.113 31.459-31.459s-14.113-31.459-31.459-31.459h-110.108c-17.347 0-31.459 14.113-31.459 31.459s14.113 31.459 31.459 31.459zM672.563 97.214c-7.783-2.476-15.925-3.756-24.114-3.756-28.697 0-55.268 15.535-69.343 40.539l-32.561 58.027c-10.388 18.47-12.968 39.95-7.226 60.421 3.596 12.801 10.205 24.218 19.168 33.539h-437.369c-66.785 0-121.119-54.334-121.119-121.119s54.334-121.119 121.119-121.119h594.877c-11.637 10.998-19.993 25.429-23.343 41.69-6.88 3.599-13.584 7.531-20.090 11.778zM256.395 133.405h-110.108c-17.347 0-31.459 14.113-31.459 31.459s14.113 31.459 31.459 31.459h110.108c17.347 0 31.459-14.113 31.459-31.459s-14.113-31.459-31.459-31.459zM1007.477 265.016l-13.358 7.497c1.721 10.41 2.592 21.021 2.592 31.67s-0.871 21.26-2.592 31.673l13.361 7.494c7.535 4.228 12.971 11.14 15.302 19.458 2.334 8.321 1.284 17.051-2.945 24.573l-32.523 57.97c-5.726 10.174-16.538 16.497-28.219 16.497-5.518 0-10.986-1.431-15.827-4.143l-13.389-7.519c-17.85 15.418-38.453 27.496-60.544 35.493v15.302c0 17.834-14.5 32.347-32.325 32.347h-66.474c-17.825 0-32.325-14.512-32.325-32.347v-15.302c-22.091-7.997-42.694-20.074-60.547-35.496l-13.399 7.525c-4.829 2.706-10.297 4.137-15.815 4.137-11.681 0-22.494-6.32-28.229-16.513l-32.51-57.939c-4.238-7.538-5.288-16.268-2.954-24.589 2.331-8.318 7.767-15.226 15.305-19.458l13.358-7.494c-1.721-10.413-2.592-21.024-2.592-31.673s0.871-21.26 2.592-31.67l-13.355-7.494c-7.535-4.225-12.971-11.134-15.308-19.451-2.337-8.324-1.29-17.057 2.945-24.582l32.526-57.97c5.726-10.174 16.538-16.494 28.219-16.494 5.518 0 10.986 1.431 15.821 4.143l13.389 7.519c17.853-15.421 38.456-27.499 60.547-35.493v-15.302c0-17.838 14.5-32.347 32.325-32.347h66.474c17.825 0 32.325 14.512 32.325 32.347v15.302c22.091 7.994 42.694 20.068 60.544 35.489l13.405-7.528c4.826-2.702 10.294-4.134 15.805-4.134 0 0 0 0 0 0 11.681 0 22.497 6.32 28.232 16.513l32.51 57.939c4.241 7.538 5.288 16.274 2.951 24.598-2.328 8.321-7.764 15.23-15.299 19.451zM803.771 210.327c-51.836 0-93.853 42.017-93.853 93.859s42.020 93.859 93.853 93.859c51.833 0 93.853-42.017 93.853-93.859s-42.020-93.859-93.853-93.859z" />
<glyph unicode="&#xe907;" glyph-name="other-mails" d="M358.4 345.6v-358.4l307.2 102.4v256l230.4 307.2h-768l230.4-307.2zM583.68 407.040l-20.48-25.6v-215.040l-102.4-35.84v250.88l-20.48 25.6-107.52 143.36h358.4l-107.52-143.36zM819.2 908.8h-614.4c-148.48 0-133.12-107.52-133.12-153.6h880.64c0 40.96 10.24 153.6-133.12 153.6z" />
<glyph unicode="&#xe908;" glyph-name="italic-en" d="M526.77-64h-234.205l204.665 1024h234.205l-204.665-1024z" />
<glyph unicode="&#xe909;" glyph-name="underline" d="M274.423 229.109c60.541-49.976 140.773-74.952 239.616-74.952 97.747 0 176.658 24.977 237.029 74.952 60.358 49.967 90.392 120.365 90.392 211.184v519.707h-186.991v-519.707c0-49.241-11.135-85.535-35.751-108.873-24.616-23.347-59.143-35.012-104.733-35.012-45.955 0-81.528 11.763-106.696 35.288-25.164 23.516-37.759 59.713-37.759 108.597v519.707h-186.991v-519.707c0-90.82 31.339-161.218 91.884-211.184zM0 82.922h1024v-146.922h-1024v146.922z" />
<glyph unicode="&#xe90a;" glyph-name="bold-en" d="M116.391-64v1024h351.653c127.049 0 226.223-23.563 297.493-70.683 71.259-47.114 106.896-117.334 106.896-210.637 0-48.768-11.477-92.117-34.458-130.115-22.976-37.986-58.371-66.584-106.202-85.8 60.013-13.593 104.317-40.905 132.926-81.934 28.587-41.029 42.903-88.273 42.903-141.716 0-99.868-33.526-175.361-100.563-226.455-67.059-51.117-163.167-76.661-288.365-76.661h-402.284zM354.814 533.098h118.153c53.917 0.937 94.246 11.369 120.975 31.302 26.724 19.922 40.092 49.107 40.092 87.556 0 43.609-13.605 75.363-40.786 95.296-27.21 19.922-68.933 29.891-125.198 29.891h-113.236v-244.045zM354.814 375.553v-256.701h163.861c50.643 0 88.623 9.969 113.941 29.902 25.313 19.922 37.986 50.507 37.986 91.767 0 44.546-10.906 78.185-32.714 100.929-21.796 22.733-57.078 34.102-105.835 34.102h-177.24z" />
<glyph unicode="&#xe90b;" glyph-name="download" d="M810.224 554.416h-170.312v255.823h-255.823v-255.587h-170.312l298.342-298.106 298.106 297.869zM213.776 171.036v-85.274h596.448v85.274h-596.448z" />
<glyph unicode="&#xe90c;" glyph-name="download-stroke" d="M810.224 554.416h-170.312v255.823h-255.823v-255.587h-170.312l298.342-298.106 298.106 297.869zM213.776 171.036v-85.274h596.448v85.274h-596.448zM953.135 960h-882.27c-38.976 0-70.865-31.889-70.865-70.865v-882.27c0-38.976 31.889-70.865 70.865-70.865h882.27c38.976 0 70.865 31.889 70.865 70.865v882.27c0 38.976-31.889 70.865-70.865 70.865zM989.749 41.116c0-38.976-31.889-70.865-70.865-70.865h-817.31c-38.976 0-70.865 31.889-70.865 70.865v817.31c0 38.976 31.889 70.865 70.865 70.865h817.31c38.976 0 70.865-31.889 70.865-70.865v-817.31z" />
<glyph unicode="&#xe90d;" glyph-name="info" d="M512 960c-281.6 0-512-230.4-512-512s230.4-512 512-512 512 230.4 512 512-224 512-512 512zM512 32c-230.4 0-416 185.6-416 416s185.6 416 416 416c230.4 0 416-185.6 416-416s-185.6-416-416-416zM560 212h-96v340h96zM560 582.8h-96v101.2h96z" />
<glyph unicode="&#xe90e;" glyph-name="clock" d="M512 960c-281.6 0-512-230.4-512-512s230.4-512 512-512 512 230.4 512 512-224 512-512 512zM512 32c-230.4 0-416 185.6-416 416s185.6 416 416 416c230.4 0 416-185.6 416-416s-185.6-416-416-416zM556 801.2h-96v-399.2h314.4v96h-218.4z" />
<glyph unicode="&#xe90f;" glyph-name="delete" d="M864 768h-96v128c0 35.344-28.656 64-64 64h-384c-35.344 0-64-28.656-64-64v-128h-96c-35.344 0-64-28.656-64-64v-64h832v64c0 35.344-28.656 64-64 64zM384 768v64h256v-64h-256zM160-0.008c0-35.344 28.648-63.992 63.992-63.992h576.024c35.336 0 63.984 28.648 63.984 63.984v576.016h-704v-576.008zM640 416c0 17.672 14.328 32 32 32s32-14.328 32-32v-320c0-17.672-14.328-32-32-32s-32 14.328-32 32v320zM480 416c0 17.672 14.328 32 32 32s32-14.328 32-32v-320c0-17.672-14.328-32-32-32s-32 14.328-32 32v320zM320 416c0 17.672 14.328 32 32 32s32-14.328 32-32v-320c0-17.672-14.328-32-32-32s-32 14.328-32 32v320z" />
<glyph unicode="&#xe910;" glyph-name="edit" d="M64 198.4l-64-262.4 262.4 64 588.8 588.8-198.4 198.4-588.8-588.8zM96 0l-25.6 32 25.6 128 128-128-128-32zM697.6 678.4l-518.4-512-38.4 38.4 518.4 512 38.4-38.4zM979.2 915.2c-70.4 70.4-166.4 32-166.4 32l-96-96 198.4-198.4 96 96c0 6.4 38.4 96-32 166.4zM857.6 857.6l-32 32c38.4 38.4 70.4 6.4 70.4 6.4l-38.4-38.4z" />
<glyph unicode="&#xe911;" glyph-name="group-conact" d="M825.6 326.4c57.6 25.6 102.4 89.6 102.4 160 0 96-76.8 179.2-166.4 179.2s-166.4-70.4-166.4-172.8c0-83.2 44.8-147.2 108.8-172.8-32-12.8-57.6-25.6-83.2-44.8h-6.4c-6.4 0-6.4-6.4-12.8-6.4-44.8 83.2-121.6 140.8-204.8 166.4 25.6 12.8 51.2 32 70.4 51.2v0 0c38.4 38.4 64 96 64 153.6 0 115.2-89.6 211.2-198.4 211.2s-204.8-96-204.8-211.2c0-64 25.6-115.2 64-153.6v0 0c19.2-19.2 38.4-38.4 64-51.2-134.4-38.4-243.2-198.4-256-390.4h1024c-12.8 140.8-96 249.6-198.4 281.6z" />
<glyph unicode="&#xe912;" glyph-name="group-conact2" d="M825.6 326.4c57.6 25.6 102.4 89.6 102.4 160 0 96-76.8 179.2-166.4 179.2s-166.4-70.4-166.4-172.8c0-83.2 44.8-147.2 108.8-172.8-38.4-12.8-70.4-32-102.4-57.6v0c-44.8 89.6-121.6 147.2-204.8 172.8 76.8 32 128 108.8 128 198.4 0 115.2-89.6 211.2-198.4 211.2s-198.4-89.6-198.4-204.8c0-89.6 51.2-166.4 128-198.4-134.4-38.4-243.2-198.4-256-390.4h1024c-12.8 134.4-96 243.2-198.4 275.2zM659.2 492.8c0 64 44.8 115.2 102.4 115.2s102.4-51.2 102.4-115.2-44.8-115.2-102.4-115.2c-57.6 0-102.4 51.2-102.4 115.2zM192 640c0 83.2 57.6 147.2 134.4 147.2s134.4-64 134.4-147.2-57.6-147.2-134.4-147.2-134.4 64-134.4 147.2zM70.4 115.2c32 153.6 134.4 268.8 256 268.8s224-115.2 256-268.8h-512zM652.8 115.2c-6.4 32-12.8 57.6-25.6 89.6v0c38.4 44.8 83.2 70.4 134.4 70.4 83.2 0 153.6-64 179.2-153.6l-288-6.4z" />
<glyph unicode="&#xe913;" glyph-name="conacts-sends" d="M960 960h-640c-38.4 0-64-25.6-64-64v-128h64v128h640v-512h-64v-64h64c38.4 0 64 25.6 64 64v512c0 38.4-25.6 64-64 64zM768 704h-704c-38.4 0-64-25.6-64-64v-512c0-38.4 25.6-64 64-64h64l128-128 128 128h384c38.4 0 64 25.6 64 64v512c0 38.4-25.6 64-64 64zM768 128l-428.8-6.4-83.2-96-89.6 102.4h-102.4v512h704v-512z" />
<glyph unicode="&#xe914;" glyph-name="add-contact-back-list-2" d="M908.8 128c70.4 83.2 115.2 198.4 115.2 320 0 281.6-230.4 512-512 512-121.6 0-230.4-38.4-320-115.2v0l-76.8-76.8c-70.4-89.6-115.2-198.4-115.2-320 0-281.6 230.4-512 512-512 121.6 0 230.4 38.4 320 115.2v0l76.8 76.8zM512 844.8c224 0 396.8-179.2 396.8-396.8 0-89.6-25.6-172.8-76.8-236.8l-556.8 556.8c64 51.2 147.2 76.8 236.8 76.8zM512 51.2c-224 0-396.8 179.2-396.8 396.8 0 89.6 25.6 172.8 76.8 236.8l556.8-556.8c-64-51.2-147.2-76.8-236.8-76.8z" />
<glyph unicode="&#xe915;" glyph-name="birth-day2" d="M134.4 620.8c-70.4 0-134.4-64-134.4-140.8v-409.6c0-70.4 64-134.4 134.4-134.4h748.8c76.8 0 134.4 64 134.4 134.4v409.6c0 76.8-64 134.4-134.4 134.4h-748.8zM70.4 6.4v544h889.6v-544h-889.6zM70.4 211.2h953.6v-70.4h-953.6v70.4zM70.4 416h953.6v-70.4h-953.6v70.4zM748.8 825.6h70.4v-204.8h-70.4v204.8zM480 825.6h70.4v-204.8h-70.4v204.8zM204.8 825.6h70.4v-204.8h-70.4v204.8zM748.8 960h70.4v-70.4h-70.4v70.4zM480 960h70.4v-70.4h-70.4v70.4zM204.8 960h70.4v-70.4h-70.4v70.4z" />
<glyph unicode="&#xe916;" glyph-name="comment-contact2" d="M864 960h-524.8l76.8-76.8h448c44.8 0 76.8-32 76.8-76.8v-710.4c0-44.8-32-76.8-76.8-76.8h-627.2c-44.8 0-76.8 32-76.8 76.8v448l-83.2 76.8v-524.8c0-89.6 70.4-160 160-160h627.2c89.6 0 160 70.4 160 160v704c0 89.6-70.4 160-160 160zM473.6 486.4v76.8l-396.8 396.8-76.8-76.8 396.8-396.8zM550.4 563.2h236.8v-76.8h-236.8v76.8zM313.6 249.6h473.6v-76.8h-473.6v76.8zM550.4 723.2h236.8v-76.8h-236.8v76.8zM313.6 409.6h473.6v-76.8h-473.6v76.8z" />
<glyph unicode="&#xe917;" glyph-name="phone-contact2" d="M729.6 332.8l-70.4-96c-12.8 0-25.6 6.4-51.2 12.8-51.2 19.2-102.4 57.6-160 115.2-64 64-102.4 121.6-128 172.8-6.4 19.2-12.8 32-12.8 51.2l89.6 70.4c25.6 19.2 25.6 51.2 6.4 76.8l-153.6 198.4c-19.2 25.6-51.2 25.6-76.8 6.4 0 0-89.6-96-96-102.4-44.8-44.8-70.4-83.2-76.8-102.4-32-96 64-332.8 268.8-544 204.8-204.8 428.8-288 524.8-256 19.2 6.4 57.6 32 102.4 76.8 6.4 6.4 102.4 96 102.4 96 19.2 19.2 19.2 57.6-6.4 76.8l-198.4 153.6c-12.8 19.2-44.8 19.2-64-6.4v0zM940.8 147.2c0 0-44.8-44.8-64-64-6.4-6.4-6.4-6.4-12.8-12.8-38.4-32-70.4-57.6-76.8-64-19.2-6.4-76.8 0-147.2 25.6-96 38.4-204.8 108.8-313.6 217.6s-179.2 217.6-224 320c-25.6 70.4-32 134.4-25.6 147.2 0 6.4 25.6 38.4 64 76.8 6.4 6.4 6.4 6.4 12.8 12.8 19.2 19.2 64 70.4 64 70.4l128-166.4-96-70.4-12.8-12.8v-19.2c0-19.2 6.4-51.2 19.2-89.6 25.6-64 70.4-128 140.8-198.4 64-64 121.6-108.8 179.2-134.4 38.4-12.8 70.4-19.2 96-19.2v0h12.8l6.4 12.8 70.4 96 179.2-128z" />
<glyph unicode="&#xe918;" glyph-name="mail-contact2" d="M192 832c-70.4 0-128-57.6-128-128v-512c0-70.4 57.6-128 128-128h640c70.4 0 128 57.6 128 128v512c0 70.4-57.6 128-128 128h-640zM128 128v512c0 0 364.8-313.6 384-313.6 25.6 0 384 313.6 384 313.6v-512h-768zM512 384l-384 320v64h768v-64l-384-320z" />
<glyph unicode="&#xe919;" glyph-name="phone-contact" d="M889.6 230.4c0-12.8 0-19.2-6.4-38.4s-6.4-25.6-12.8-38.4-32-38.4-64-57.6c-32-19.2-64-25.6-102.4-25.6-12.8 0-19.2 0-25.6 0s-19.2 6.4-32 6.4-19.2 6.4-25.6 6.4c-6.4 0-12.8 6.4-32 12.8-12.8 6.4-25.6 6.4-25.6 12.8-32 12.8-64 25.6-96 44.8-44.8 25.6-96 64-140.8 115.2s-83.2 96-108.8 140.8c-19.2 25.6-32 57.6-44.8 96 0 6.4-6.4 12.8-12.8 25.6s-6.4 25.6-6.4 25.6c0 6.4-6.4 12.8-6.4 25.6s-6.4 19.2-6.4 32c0 6.4 0 19.2 0 25.6 0 32 6.4 64 25.6 102.4s38.4 57.6 57.6 64c6.4 6.4 19.2 12.8 32 12.8 12.8 6.4 25.6 6.4 38.4 6.4 6.4 0 6.4 0 12.8 0s12.8-12.8 25.6-38.4c6.4-12.8 6.4-19.2 19.2-32 6.4-12.8 12.8-25.6 19.2-32 0-12.8 6.4-25.6 12.8-32 0 0 6.4-6.4 6.4-12.8s6.4-12.8 12.8-19.2c0-6.4 6.4-12.8 6.4-12.8 0-6.4-6.4-19.2-12.8-25.6-12.8-12.8-25.6-25.6-38.4-32-12.8-12.8-19.2-19.2-32-32-6.4-6.4-12.8-19.2-12.8-25.6s0-6.4 0-12.8 6.4-6.4 6.4-6.4 0-6.4 6.4-12.8 6.4-6.4 6.4-12.8c25.6-51.2 57.6-89.6 96-128s76.8-64 128-96c0 0 6.4 0 12.8-6.4s0 0 6.4 0 6.4 0 12.8-6.4c6.4 0 6.4 0 12.8 0s12.8 6.4 25.6 12.8c12.8 12.8 19.2 19.2 25.6 32s19.2 25.6 32 32c12.8 12.8 19.2 12.8 25.6 12.8s12.8 0 12.8-6.4 12.8-6.4 19.2-12.8c6.4-6.4 12.8-6.4 12.8-6.4 6.4-6.4 19.2-12.8 25.6-19.2s19.2-12.8 32-19.2c12.8-6.4 19.2-12.8 32-19.2 25.6-12.8 38.4-19.2 38.4-25.6 6.4 6.4 6.4 6.4 6.4 0z" />
<glyph unicode="&#xe91a;" glyph-name="mail-contact" d="M992 742.4c0-25.6-6.4-57.6-25.6-83.2s-38.4-44.8-64-64c-134.4-96-217.6-153.6-249.6-172.8-6.4 0-12.8-6.4-25.6-19.2-12.8-6.4-19.2-19.2-32-19.2-6.4-6.4-12.8-12.8-25.6-19.2s-19.2-12.8-32-12.8c-6.4-6.4-19.2-6.4-25.6-6.4v0 0c-6.4 0-19.2 0-25.6 6.4-12.8 0-19.2 6.4-32 12.8s-19.2 12.8-25.6 19.2c-12.8 0-19.2 12.8-32 19.2s-19.2 12.8-25.6 12.8c-32 25.6-76.8 57.6-134.4 102.4-64 44.8-96 70.4-108.8 76.8-19.2 12.8-44.8 38.4-64 64-19.2 19.2-32 44.8-32 70.4s6.4 51.2 19.2 70.4c12.8 19.2 38.4 25.6 64 25.6h787.2c25.6 0 44.8-6.4 57.6-25.6 25.6-19.2 32-38.4 32-57.6zM992 582.4v-422.4c0-25.6-6.4-44.8-25.6-57.6-19.2-19.2-38.4-25.6-57.6-25.6h-793.6c-25.6 0-44.8 6.4-57.6 25.6-19.2 19.2-25.6 38.4-25.6 57.6v422.4c12.8-19.2 32-32 51.2-44.8 134.4-89.6 224-153.6 268.8-185.6 19.2-12.8 38.4-25.6 51.2-32s32-19.2 51.2-25.6c19.2-6.4 38.4-12.8 57.6-12.8v0 0c19.2 0 38.4 6.4 57.6 12.8s38.4 19.2 51.2 25.6c12.8 6.4 32 19.2 51.2 32 57.6 44.8 147.2 102.4 268.8 185.6 19.2 12.8 38.4 25.6 51.2 44.8z" />
<glyph unicode="&#xe91b;" glyph-name="comment-contact" d="M787.2 326.4v-102.4c0-44.8-12.8-76.8-44.8-108.8s-64-44.8-108.8-44.8h-448c-44.8 0-76.8 12.8-108.8 44.8s-44.8 64-44.8 108.8v448c0 44.8 12.8 76.8 44.8 108.8s64 44.8 108.8 44.8h448c25.6 0 44.8-6.4 64-12.8 6.4-6.4 6.4-6.4 6.4-12.8s0-12.8-6.4-12.8l-25.6-25.6c-6.4-6.4-12.8-6.4-19.2-6.4s-19.2 6.4-25.6 6.4h-448c-12.8-6.4-32-12.8-51.2-32s-25.6-32-25.6-57.6v-448c0-25.6 6.4-44.8 25.6-57.6s38.4-25.6 57.6-25.6h448c25.6 0 44.8 6.4 57.6 25.6s25.6 38.4 25.6 57.6v70.4c0 6.4 0 6.4 6.4 12.8l32 32c6.4 6.4 12.8 6.4 19.2 6.4 12.8-6.4 12.8-12.8 12.8-19.2zM736 723.2l153.6-153.6-358.4-358.4h-153.6v153.6l358.4 358.4zM512 262.4l64 64-83.2 76.8-64-64v-32h51.2v-51.2h32zM742.4 646.4c-6.4 6.4-12.8 6.4-19.2 0l-185.6-192c-6.4-6.4-6.4-6.4 0-12.8s12.8-6.4 19.2 0l185.6 185.6c6.4 6.4 6.4 12.8 0 19.2zM972.8 652.8l-51.2-51.2-153.6 153.6 51.2 51.2c12.8 12.8 19.2 12.8 38.4 12.8s25.6-6.4 38.4-12.8l83.2-83.2c12.8-12.8 12.8-19.2 12.8-38.4 0-12.8-6.4-25.6-19.2-32z" />
<glyph unicode="&#xe91c;" glyph-name="birth-day" d="M992 345.6v-102.4c-12.8 0-25.6 0-32 6.4s-19.2 12.8-25.6 19.2c-12.8 6.4-19.2 12.8-25.6 19.2s-19.2 6.4-32 12.8c-12.8 6.4-32 6.4-44.8 6.4-19.2 0-32 0-44.8-6.4s-25.6-12.8-32-12.8c-6.4-6.4-12.8-12.8-25.6-19.2-6.4-6.4-12.8-12.8-19.2-12.8s-6.4-6.4-19.2-6.4c-6.4 0-12.8-6.4-25.6-6.4s-25.6 0-32 6.4-6.4 6.4-19.2 19.2c-12.8 6.4-19.2 12.8-25.6 19.2s-19.2 6.4-32 12.8-25.6 12.8-44.8 12.8c-19.2 0-32 0-44.8-6.4s-25.6-12.8-32-12.8c-6.4-6.4-12.8-12.8-25.6-19.2-6.4-12.8-12.8-19.2-19.2-19.2s-12.8-6.4-19.2-6.4c-6.4 0-12.8-6.4-25.6-6.4s-25.6 0-32 6.4c-6.4 6.4-19.2 12.8-25.6 19.2-12.8 6.4-19.2 12.8-25.6 19.2s-19.2 12.8-32 12.8-19.2 12.8-38.4 12.8c-19.2 0-32 0-44.8-6.4s-25.6-12.8-32-12.8c-6.4-6.4-12.8-12.8-25.6-19.2-12.8-19.2-19.2-25.6-25.6-25.6-6.4-6.4-19.2-6.4-32-6.4v102.4c0 25.6 12.8 51.2 32 70.4s44.8 32 70.4 32h32v243.2h134.4v-243.2h134.4v243.2h134.4v-243.2h134.4v243.2h134.4v-243.2h32c25.6 0 51.2-12.8 70.4-32s51.2-44.8 51.2-70.4zM992 172.8v-204.8h-960v204.8c19.2 0 32 0 44.8 6.4s25.6 12.8 32 12.8c6.4 6.4 12.8 12.8 25.6 19.2 12.8 12.8 19.2 19.2 25.6 19.2s19.2 6.4 32 6.4 25.6 0 32-6.4 19.2-12.8 25.6-19.2c12.8-6.4 19.2-12.8 25.6-19.2s19.2-6.4 32-12.8 32-6.4 44.8-6.4 32 0 44.8 6.4c12.8 6.4 25.6 12.8 32 12.8 6.4 6.4 12.8 12.8 25.6 19.2 6.4 6.4 12.8 12.8 19.2 12.8s12.8 6.4 19.2 6.4c6.4 0 12.8 6.4 25.6 6.4s25.6 0 32-6.4c6.4-6.4 19.2-12.8 25.6-19.2 12.8-6.4 19.2-12.8 25.6-19.2s19.2-12.8 32-12.8c12.8-6.4 32-6.4 44.8-6.4 19.2 0 32 0 44.8 6.4s25.6 12.8 32 12.8c6.4 6.4 12.8 12.8 25.6 19.2 12.8 12.8 19.2 19.2 25.6 19.2 6.4 6.4 19.2 6.4 32 6.4s19.2 0 32-6.4c6.4-6.4 19.2-12.8 25.6-19.2 12.8-6.4 19.2-12.8 25.6-19.2s19.2-12.8 32-12.8 19.2-6.4 38.4-6.4zM307.2 806.4c0-25.6-6.4-51.2-19.2-64s-32-19.2-51.2-19.2c-19.2 0-32 6.4-44.8 19.2-19.2 12.8-25.6 32-25.6 51.2 0 12.8 0 19.2 6.4 25.6s6.4 12.8 12.8 19.2 12.8 6.4 19.2 12.8c6.4 6.4 12.8 12.8 19.2 19.2s6.4 12.8 12.8 25.6c6.4 12.8 6.4 19.2 6.4 38.4 12.8 0 25.6-12.8 44.8-38.4 12.8-32 19.2-64 19.2-89.6zM582.4 806.4c0-25.6-6.4-51.2-19.2-64s-32-19.2-51.2-19.2c-19.2 0-32 6.4-51.2 19.2-12.8 12.8-19.2 32-19.2 51.2 0 12.8 0 19.2 6.4 25.6s6.4 12.8 12.8 19.2 12.8 6.4 19.2 12.8c6.4 6.4 12.8 12.8 19.2 19.2s6.4 12.8 12.8 25.6c0 6.4 0 19.2 0 32 12.8 0 25.6-12.8 44.8-38.4 12.8-25.6 25.6-57.6 25.6-83.2zM857.6 806.4c0-25.6-6.4-51.2-19.2-64s-32-19.2-51.2-19.2c-19.2 0-32 6.4-51.2 19.2-12.8 12.8-19.2 32-19.2 51.2 0 12.8 0 19.2 6.4 25.6s6.4 12.8 12.8 19.2c6.4 6.4 12.8 6.4 19.2 12.8s12.8 12.8 19.2 19.2 6.4 12.8 12.8 25.6c6.4 12.8 6.4 19.2 6.4 38.4 12.8 0 25.6-12.8 44.8-38.4 6.4-32 19.2-64 19.2-89.6z" />
<glyph unicode="&#xe91d;" glyph-name="eye" d="M512 748.8c-198.4 0-371.2-108.8-499.2-275.2-12.8-12.8-12.8-32 0-44.8 128-166.4 307.2-275.2 499.2-275.2s371.2 108.8 499.2 275.2c12.8 12.8 12.8 32 0 44.8-128 166.4-300.8 275.2-499.2 275.2zM524.8 236.8c-128-6.4-236.8 96-230.4 230.4 6.4 108.8 96 192 198.4 198.4 128 6.4 236.8-96 230.4-230.4-6.4-115.2-89.6-192-198.4-198.4zM518.4 326.4c-70.4-6.4-128 57.6-121.6 128 6.4 64 44.8 102.4 108.8 108.8 70.4 6.4 128-51.2 121.6-121.6-6.4-64-44.8-102.4-108.8-115.2z" />
<glyph unicode="&#xe91e;" glyph-name="check-box-mark" d="M870.4 857.6l-499.2-492.8-211.2 211.2-160-160 211.2-224 147.2-153.6 665.6 665.6z" />
<glyph unicode="&#xe91f;" glyph-name="checked" d="M1004.8 768l-57.6 57.6-608-608-262.4 262.4-57.6-64 256-256 64-57.6 57.6 57.6z" />
<glyph unicode="&#xe920;" glyph-name="remove-thick" d="M672 448l345.6 345.6c6.4 6.4 6.4 19.2 0 32l-128 128c-6.4 6.4-6.4 6.4-12.8 6.4s-12.8 0-12.8-6.4l-352-345.6-345.6 345.6c-12.8 6.4-25.6 6.4-32 0l-128-128c-6.4-6.4-6.4-19.2 0-32l345.6-345.6-345.6-345.6c-6.4-6.4-6.4-19.2 0-32l128-128c6.4-6.4 6.4-6.4 12.8-6.4s12.8 0 12.8 6.4l352 345.6 345.6-345.6c6.4-6.4 6.4-6.4 12.8-6.4s12.8 0 12.8 6.4l128 128c6.4 6.4 6.4 19.2 0 32l-339.2 345.6z" />
<glyph unicode="&#xe921;" glyph-name="grid-square" d="M160 755.2h179.2v179.2h-179.2v-179.2zM691.2 934.4v-172.8h179.2v172.8c-6.4 0-179.2 0-179.2 0zM422.4 755.2h179.2v179.2h-179.2v-179.2zM160-38.4h179.2v179.2h-179.2v-179.2zM691.2-38.4h179.2v179.2h-179.2v-179.2zM422.4-38.4h179.2v179.2h-179.2v-179.2zM160 230.4h179.2v172.8h-179.2v-172.8zM691.2 230.4h179.2v172.8h-179.2v-172.8zM422.4 230.4h179.2v172.8h-179.2v-172.8zM160 492.8h179.2v172.8h-179.2v-172.8zM691.2 492.8h179.2v172.8h-179.2v-172.8zM422.4 492.8h179.2v172.8h-179.2v-172.8z" />
<glyph unicode="&#xe922;" glyph-name="label-message" d="M989.867 510.578l-238.933 329.956c-22.756 34.133-73.956 62.578-119.467 62.578h-557.511c-39.822 0-73.956-34.133-73.956-73.956v-756.622c0-45.511 34.133-79.644 73.956-79.644h557.511c39.822 0 96.711 28.444 119.467 62.578l238.933 329.956c28.444 34.133 28.444 91.022 0 125.156zM659.911 345.6c-56.889 0-102.4 45.511-102.4 102.4s45.511 102.4 102.4 102.4 96.711-45.511 96.711-102.4-45.511-102.4-96.711-102.4z" />
<glyph unicode="&#xe923;" glyph-name="close-thin" d="M1024 908.8l-51.2 51.2-460.8-460.8-460.8 460.8-51.2-51.2 460.8-460.8-460.8-460.8 51.2-51.2 460.8 460.8 460.8-460.8 51.2 51.2-460.8 460.8 460.8 460.8z" />
<glyph unicode="&#xe924;" glyph-name="select-arrow" d="M1011.2 684.8l-51.2 51.2c-6.4 6.4-12.8 12.8-25.6 12.8-6.4 0-19.2-6.4-25.6-12.8l-396.8-403.2-403.2 403.2c-6.4 6.4-12.8 12.8-25.6 12.8s-12.8-6.4-19.2-12.8l-51.2-51.2c-6.4-6.4-12.8-12.8-12.8-25.6 0-6.4 6.4-12.8 12.8-19.2l480-480c6.4-6.4 12.8-12.8 25.6-12.8 6.4 0 19.2 6.4 25.6 12.8l467.2 480c6.4 6.4 12.8 12.8 12.8 19.2 0 12.8-6.4 19.2-12.8 25.6z" />
<glyph unicode="&#xe925;" glyph-name="arrow-down" d="M-0.4 676.8l456.8-456.8-0.8-0.8 56-55.6 0.4 0.8 0.4-0.8 56 55.6-0.8 0.8 456.8 456.8-55.6 55.6-456.8-456.8-456.8 456.8z" />
<glyph unicode="&#xe926;" glyph-name="arrow-up" d="M1024.4 219.2l-456.8 456.8 0.8 0.8-56 55.6-0.4-0.8-0.4 0.8-56-55.6 0.8-0.8-456.8-456.8 55.6-55.6 456.8 456.8 456.8-456.8z" />
<glyph unicode="&#xe927;" glyph-name="contacts-ava" d="M916.211 960h-808.421c-59.5 0-107.789-48.263-107.789-107.789v-808.421c0-59.123 47.697-107.062 106.658-107.682 0 57.263 0 121.29 0 159.313 0 48.29 202.914 153.843 202.914 153.843l13.231 10.105h31.555c49.125-71.734 153.411-125.763 158.343-125.763s101.699 55.458 150.878 125.763h35.759l13.231-10.105c0 0 203.641-110.053 203.641-153.843 0-35.867 0-100.999 0-159.421 59.5 0 107.789 48.263 107.789 107.789v808.421c0 59.527-48.29 107.789-107.789 107.789zM733.184 384.216l-21.127-0.216c-0.728 0-1.374 0.404-2.102 0.485-31.582-72.461-141.339-172.813-197.12-172.813-54.218 0-187.338 106.819-217.869 171.87l-7.896 0.054c-15.495 0.135-27.917 14.579-27.702 32.256l0.377 38.75c0.162 17.651 6.602 26.381 22.097 26.247l4.15-0.027c0.62 23.148 1.752 44.328 1.617 55.943-1.59 140.908 134.575 234.604 225.199 234.604 92.403 0 228.406-86.232 224.768-233.688-0.243-9.512 1.967-32.984 1.32-56.131 15.252 0.027 21.639-8.596 21.747-26.139l0.35-38.831c0.108-17.677-12.369-32.175-27.81-32.364z" />
<glyph unicode="&#xe928;" glyph-name="add-contacts-2" d="M718.8 268.8l-184.8-184.8-125.6 125.6-66.8-66.8 125.6-125.6-0.4-0.4 66.8-66.8 0.4 0.4 0.4-0.4 66.8 66.8-0.4 0.4 184.8 184.8-66.8 66.8zM524.4 163.6h12.4l171.6 171.6c-12 13.2-87.6 88.8-296.4 100.8 47.2 18.4 86.8 59.2 112 113.6 23.2-2.4 49.2 16.8 61.2 48.8 13.6 36 4 73.2-21.2 82.4-3.6 1.2-7.2 0.8-10.8 0.8 0 1.2 0.4 2.4 0.4 3.6 0 143.6-87.6 260-195.6 260s-195.6-116.4-195.6-260c0-1.2 0.4-2 0.4-3.2-5.6 0.4-10.8 0.8-16-1.2-25.2-9.6-34.8-46.4-21.2-82.4 12.8-34.4 42-54.8 66.4-48.4 25.2-54.4 64.4-95.2 111.2-113.6-233.2-12.4-303.2-105.2-303.2-105.2v-167.6h291.6l116.4 116.4 116.4-116.4zM830.8 340c30.4 12 56 38.4 72.4 73.6 15.2-1.6 32 10.8 39.6 31.6 8.8 23.2 2.4 47.2-14 53.6-2.4 0.8-4.8 0.4-6.8 0.4 0 0.8 0 1.6 0 2.4 0 92.8-56.8 168.4-126.4 168.4-70 0-126.4-75.2-126.4-168.4 0-0.8 0-1.2 0-2-3.6 0.4-7.2 0.4-10.4-0.8-16.4-6-22.4-30-14-53.6 8.4-22.4 27.2-35.6 42.8-31.6 16.4-35.2 41.6-61.6 72-73.6-9.2-0.4-16.4-1.6-24.8-2.4l127.2-127.2-46-46.8h208v109.6c0 0-44.8 58.4-193.2 66.8z" />
<glyph unicode="&#xe929;" glyph-name="add-contact" d="M576 476.4c108 0 195.6 98.4 195.6 220s-87.6 220-195.6 220c-108 0-195.6-98.4-195.6-220s87.6-220 195.6-220zM576 814c57.6 0 104.4-52.8 104.4-117.6s-46.8-117.6-104.4-117.6c-57.6 0-104.4 52.8-104.4 117.6s46.8 117.6 104.4 117.6zM205.2 288.4h-101.6v-103.6h-103.6v-101.6h103.6v-103.6h101.6v103.6h103.6v101.6h-103.6v103.6zM576 476.4l-283.6-106c31.6-20 58.8-46.4 79.6-77.2l204 74.4 240-87.6h-436.8c19.6-32.8 32-69.6 36.8-108.8h608v139.6l-448 165.6z" />
<glyph unicode="&#xe92a;" glyph-name="align-c" d="M128 384v-64h768v64h-768zM0 128h1024v64h-1024v-64zM128-64h768v64h-768v-64zM0 512h1024v64h-1024v-64zM128 768v-64h768v64h-768zM0 960v-64h1024v64h-1024z" />
<glyph unicode="&#xe92b;" glyph-name="align-l" d="M768 384h-768v-64h768v64zM768 768h-768v-64h768v64zM0-64h768v64h-768v-64zM0 512h1024v64h-1024v-64zM0 960v-64h1024v64h-1024zM0 128h1024v64h-1024v-64z" />
<glyph unicode="&#xe92c;" glyph-name="align-r" d="M256-64h768v64h-768v-64zM256 320h768v64h-768v-64zM0 128h1024v64h-1024v-64zM0 960v-64h1024v64h-1024zM0 512h1024v64h-1024v-64zM256 704h768v64h-768v-64z" />
<glyph unicode="&#xe92d;" glyph-name="archive" d="M739.6 448.4h-455.2v-113.6h455.2v113.6zM967.2 960.4h-910.4c-34 0-56.8-22.8-56.8-56.8v-341.2h56.8v-568.8c0-34 22.8-56.8 56.8-56.8h796.4c34 0 56.8 28.4 56.8 56.8v568.4h57.2v341.6c0 34-22.8 56.8-56.8 56.8zM853.2 50h-682.4v512h682.8l-0.4-512zM910.4 676h-796.8v170.8h796.4l0.4-170.8z" />
<glyph unicode="&#xe92e;" glyph-name="attach" d="M914 277.6l-389.2 389.2c-27.2 28-60.4 42.4-100 42.4-36.8 0-67.6-12.8-93.2-38-25.6-25.6-38.4-56.4-38.4-93.2 0-39.2 14-72.8 42.4-100l274.8-274.8c4.4-4.4 9.2-6.8 14.8-6.8 7.2 0 17.6 6.8 31.6 20.8s20.8 24.4 20.8 31.6c0 5.2-2.4 10.4-6.8 14.8l-274.8 274.8c-11.2 12-16.8 25.2-16.8 39.6 0 12.8 4.4 23.6 12.8 32s19.2 12.8 32 12.8c15.2 0 28.4-5.2 40.4-16l389.2-389.2c28-28 42.4-60.4 42.4-97.2 0-28.8-9.2-52.4-28-71.2s-42.4-28-71.2-28c-36.8 0-69.2 14-97.2 42.4l-520 520.4c-34 34-50.8 74.4-50.8 121.2 0 47.2 16.4 87.6 48.8 121.2 32.8 33.6 72.4 50.4 120 50.4 45.6 0 86-17.2 121.2-51.6l406-406.8c4.4-4.4 9.6-6.8 15.6-6.8 7.2 0 17.6 6.8 31.2 20.4s20.4 24 20.4 31.2c0 5.2-2.4 10.4-6.8 14.8l-405.2 406.4c-51.6 50.4-112.4 75.6-183.2 75.6s-131.2-24.8-180.4-74.4c-48.8-49.6-73.6-110-73.6-180.8 0-69.6 25.2-130.4 75.6-181.6l520.8-520c44.8-44.8 97.2-67.2 157.6-67.2 52.4 0 96 17.6 131.2 52.8s52.8 79.2 52.8 131.2c0.4 61.6-22 114-66.8 157.6v0z" />
<glyph unicode="&#xe92f;" glyph-name="autoreply" d="M227.6 391.2h568.8v113.6h-568.8v-113.6zM796.4 960h-682.8c-62.4 0-113.6-51.2-113.6-113.6v-796.4c0-62.8 51.2-114 113.6-114h796.4c62.4 0 113.6 51.2 113.6 113.6v682.8l-227.2 227.6zM113.6 49.6v796.8h625.6v-113.6c0-34 22.8-56.8 56.8-56.8h113.6v-625.6h-796v-0.8zM227.6 163.6h455.2v113.6h-455.2v-113.6z" />
<glyph unicode="&#xe930;" glyph-name="background-color" d="M1024 874.8c0 51.2-34 85.2-85.2 85.2h-853.6c-51.2 0-85.2-34-85.2-85.2v-853.2c0-51.6 34-85.6 85.2-85.6h853.2c51.2 0 85.2 34 85.2 85.2l0.4 853.6zM853.2 618.8h-256v-512h-170.8v512h-256v170.4h682.8v-170.4z" />
<glyph unicode="&#xe931;" glyph-name="bin-solid" d="M372 752.4c6 25.2 17.2 72 27.6 79.6l227.2 1.2c10.8-8.8 22-56 28.4-81.6 3.6-14.8 7.6-30.8 12.4-47.2h-308.4c5.2 16.8 9.2 33.6 12.8 48v0zM805.2 704c-9.6 10.8-20 52-26 77.6-16.8 70.8-42.8 178.4-150.8 178.4h-229.2c-109.6 0-136.4-111.2-152-178-6-24.8-16.8-70.4-26-78h-157.2v-128h128v-511.2c0-71.2 56.8-128.8 128-128.8h383.2c71.2 0 128.8 57.6 128.8 128.8v511.2h128v128h-154.8z" />
<glyph unicode="&#xe932;" glyph-name="bold" d="M718.4 470.8l282.8 359.2c-53.6 0-99.2 0-152.8 0-7.6-7.6-267.6-351.6-275.2-359.2 0 122.4 0 244.4 0 359.2v0c-38.4 0-84 0-122.4 0v0c0-122.4 0-244.4 0-359.2-7.6 7.6-267.6 351.6-275.2 359.2-53.6 0-99.2 0-152.8 0l282.8-359.2c-7.6-7.6-305.6-397.2-305.6-404.8 53.6 0 99.2 0 152.8 0 76.4 106.8 152.8 214 236.8 320.8 22.8-22.8 38.4-53.6 61.2-76.4 0-76.4 0-160.4 0-244.4v0c38.4 0 84 0 122.4 0v0c0 84 0 160.4 0 244.4 22.8 30.4 38.4 53.6 61.2 76.4 76.4-106.8 152.8-214 236.8-320.8 53.6 0 99.2 0 152.8 0 0 0-305.6 397.2-305.6 404.8z" />
<glyph unicode="&#xe933;" glyph-name="bin" d="M682.8 562h-113.6v-398h113.6v398zM785.2 789.6l-45.6 170.8h-455.2l-45.6-170.8h-238.8v-113.6h113.6v-682.8c0-34 22.8-56.8 56.8-56.8h682.8c34 0 56.8 22.8 56.8 56.8v682.8h114v113.6h-238.8zM369.6 846.8h278.8l17.2-56.8h-307.2l11.2 56.8zM796.4 50h-568.8v626h568.8v-626zM455.2 562h-114v-398h113.6l0.4 398z" />
<glyph unicode="&#xe934;" glyph-name="draft" d="M128 960v-1024h768v704l-320 320h-448zM256 832h256v-256h256v-512h-512v768z" />
<glyph unicode="&#xe935;" glyph-name="emoji" d="M512 960c-281.6 0-512-230.4-512-512s230.4-512 512-512 512 230.4 512 512-224 512-512 512zM512 32c-230.4 0-416 185.6-416 416s185.6 416 416 416 416-185.6 416-416-185.6-416-416-416zM352 448c51.2 0 96 44.8 96 96s-38.4 96-96 96-96-44.8-96-96 44.8-96 96-96zM672 448c96 0 96 64 96 64v64h-128v-64h-64c0 0 0-64 96-64zM512 224c-115.2 0-230.4 115.2-230.4 121.6l-44.8-44.8c6.4-6.4 140.8-134.4 281.6-134.4s275.2 134.4 281.6 134.4l-44.8 44.8c-6.4-6.4-128-121.6-243.2-121.6z" />
<glyph unicode="&#xe936;" glyph-name="folder" d="M967.2 903.2h-398.4c0 34-28.4 56.8-56.8 56.8h-455.2c-28.4 0-56.8-22.8-56.8-56.8v-910.4c0-34 22.8-56.8 56.8-56.8h910.4c28.4 0 56.8 22.8 56.8 56.8v853.6c0 34-22.8 56.8-56.8 56.8zM910.4 49.6h-796.8v512h796.4l0.4-512zM910.4 675.6h-796.8v170.8h341.2v-56.8h455.2l0.4-114z" />
<glyph unicode="&#xe937;" glyph-name="folder-star" d="M967.2 903.2h-398.4c0 34-28.4 56.8-56.8 56.8h-455.2c-28.4 0-56.8-22.8-56.8-56.8v-910.4c0-34 22.8-56.8 56.8-56.8h910.4c28.4 0 56.8 22.8 56.8 56.8v853.6c0 34-22.8 56.8-56.8 56.8zM910.4 49.6h-796.8v512h796.4v-512h0.4zM910.4 675.6h-796.8v170.8h341.2v-56.8h455.2v-114h0.4zM420.8 163.6l91.2 51.2 91.2-51.2-17.2 102.4 74 74-102.4 17.2-45.6 90.8-45.6-91.2-102.4-16.8 74-74-17.2-102.4z" />
<glyph unicode="&#xe938;" glyph-name="font-color" d="M0-64h1024v170.8h-1024v-170.8zM0 960v-170.8h426.8v-597.2h170.8v597.2h426.4v170.8h-1024z" />
<glyph unicode="&#xe939;" glyph-name="font-family" d="M34-64l392.8 1024h145.2l418-1024h-153.6l-102.4 256h-460.8l-94-256h-145.2zM324.4 354h350l-102.4 290c-34 85.2-59.6 153.6-76.8 204.8-8.4-59.6-34-128-51.2-196.4l-119.6-298.4z" />
<glyph unicode="&#xe93a;" glyph-name="font-size" d="M768 832h-768v-128h320v-640h128v640h320v128zM640 512v-128h128v-320h128v320h128v128h-384z" />
<glyph unicode="&#xe93b;" glyph-name="reply" d="M1024 209.6c0-51.2 0-216 0-216 0-28.4-28.4-56.8-56.8-56.8h-910.4c-34 0-56.8 28.4-56.8 56.8v910c0 34 28.4 56.8 56.8 56.8h910.4c34 0 56.8-22.8 56.8-56.8v-284.4h-113.6v227.6h-796.8v-796.4h796.4v113.6c-17.2 62.4-176.4 136.4-267.2 142.4h-90.8v-96.8c0-22.8-17.2-45.6-45.6-45.6-22.8 0-34 17.2-45.6 28.4l-204.8 210.4c-17.2 17.2-28.4 22.8-28.4 45.6s11.2 28.4 28.4 45.6l204.8 210.4c11.2 11.2 22.8 28.4 45.6 28.4s45.6-22.8 51.2-45.6v-91.2c193.6 0 335.6-148 398.4-244.8 22.4-33.6 68-102 68-141.6z" />
<glyph unicode="&#xe93c;" glyph-name="forward" d="M68.4 351.6c62.4 96.8 204.8 244.8 398.4 244.8v90.8c5.6 22.8 28.4 45.6 51.2 45.6s34-17.2 45.6-28.4l204.8-210.4c17.2-17.2 28.4-22.8 28.4-45.6s-11.2-28.4-28.4-45.6l-204.8-210.4c-11.2-11.2-22.8-28.4-45.6-28.4-28.4 0-45.6 22.8-45.6 45.6v96.8h-91.2c-91.2-5.6-250.4-79.6-267.2-142.4v-113.6h796.4v796.4h-796.8v-227.6h-113.6v284.4c0 34 22.8 56.8 56.8 56.8h910.4c28.4 0 56.8-22.8 56.8-56.8v-910.4c0-28.4-22.8-56.8-56.8-56.8h-910.4c-28.4 0-56.8 28.4-56.8 56.8 0 0 0 164.8 0 216 0 40 45.6 108.4 68.4 142.4z" />
<glyph unicode="&#xe93d;" glyph-name="full-screen" d="M409.6 345.6c-22 22-66 22-87.6 0l-190-190v102.4c0 36.4-29.2 66-66 66v0c-36.8-7.6-66-29.6-66-66v-256c0-36.4 29.2-66 66-66h256c36.4 0 66 29.2 66 66v0c0 36.4-29.2 66-66 66h-102.4l190 190c22 21.6 22 58.4 0 87.6v0zM958 316.4v0c-36.4 0-66-29.2-66-66v-95.2l-190 190c-22 22-66 22-87.6 0v0c-22-22-22-66 0-87.6l190-190h-102.4c-36.4 0-66-29.2-66-66v0c0-36.4 29.2-66 66-66h256c36.4 0 66 29.2 66 66v256c0 36.8-29.2 58.8-66 58.8zM219.6 828.4h102.4c36.4 0 66 29.2 66 66v0c-7.6 36.4-29.6 65.6-66 65.6h-256c-36.8 0-66-29.2-66-66v-256c0-36.4 29.2-66 66-66v0c36.4 0 66 29.2 66 66v102.4l190-190c22-22 66-22 87.6 0v0c22 22 22 66 0 87.6l-190 190.4zM958 960h-256c-36.4 0-66-29.2-66-66v0c0-36.4 29.2-66 66-66h102.4l-190-182.8c-22-22-22-66 0-87.6v0c22-22 66-22 87.6 0l190 182.8v-102.4c0-36.4 29.2-66 66-66v0c36.4 0 66 29.2 66 66v256c0 36.8-29.2 66-66 66z" />
<glyph unicode="&#xe93e;" glyph-name="img" d="M0 96h1024v768h-1024v-768zM128 736h768v-352.4l-256 226.4-205.6-206.4-114.4 76.4-192-192v448z" />
<glyph unicode="&#xe93f;" glyph-name="important" d="M1024 128h-1024v640h1024l-260-318.4z" />
<glyph unicode="&#xe940;" glyph-name="incoming" d="M512 256l256 320h-192v384h-128v-384h-192l256-320zM704 960v-256h192v-640h-768v640h192v256h-320v-1024h1024v1024h-320z" />
<glyph unicode="&#xe941;" glyph-name="italic" d="M1024 960c-61.6 0-164 0-215.2 0-10-10.4-470.8-440.4-491.2-460.8 0 10.4 102.4 460.8 102.4 460.8-51.2 0-153.6 0-194.8 0-10-10.4-225.2-1013.6-225.2-1024 40.8 0 153.6 0 194.4 0 0 10.4 71.6 327.6 71.6 348 10.4 10.4 92 82 112.8 102.4 0-10.4 256-430 266.4-450.4 51.2 0 153.6 0 194.4 0-10.4 20.4-338 522.4-348 542.8 10 0 532.4 481.2 532.4 481.2z" />
<glyph unicode="&#xe942;" glyph-name="link" d="M477.2 284c6.4-12.8 6.4-25.6 6.4-32 0-25.6-6.4-44.8-25.6-64.4l-128.4-128.4c-19.2-19.2-38.4-25.6-64.4-25.6s-45.2 6.4-64.4 25.6l-90 90c-19.2 19.2-25.6 38.4-25.6 64.4s6.4 44.8 25.6 64.4l128.4 128.4c19.2 19.2 38.4 25.6 64.4 25.6 12.8 0 25.6 0 32-6.4l70.8 70.8c-19.2 12.8-58 25.6-96.4 25.6-44.8 0-96.4-19.2-128.4-51.2l-128.4-128.4c-70.8-70.8-70.8-192.8 0-263.6l90-90c38.4-38.4 83.6-51.2 128.4-51.2s96.4 19.2 128.4 51.2l128.4 128.4c64.4 64.4 70.8 167.2 19.2 237.6l-70.4-70.8zM971.6 817.6l-90 90c-38.4 38.4-83.6 51.2-128.4 51.2s-96.4-19.2-128.4-51.2l-128.4-128.4c-64.4-64.4-70.8-167.2-19.2-237.6l70.4 70.4c-12.8 6.4-12.8 19.2-12.8 32 0 25.6 6.4 44.8 25.6 64.4l128.4 128.4c19.2 19.2 38.4 25.6 64.4 25.6s44.8-6.4 64.4-25.6l90-90c19.2-19.2 25.6-38.4 25.6-64.4 0-25.6-6.4-44.8-25.6-64.4l-128.4-128.4c-19.2-19.2-38.4-25.6-64.4-25.6-12.8 0-25.6 0-32 6.4l-83.6-64.4c32-25.6 70.8-32 109.2-32 44.8 0 96.4 19.2 128.4 51.2l128.4 128.4c77.2 71.2 77.2 186.8 6.4 264zM329.2 226.4l392 392-32 32-392-392 32-32z" />
<glyph unicode="&#xe943;" glyph-name="more" d="M657.2 448c0-80.192-65.008-145.2-145.2-145.2s-145.2 65.008-145.2 145.2c0 80.192 65.008 145.2 145.2 145.2s145.2-65.008 145.2-145.2zM1024 448c0-80.192-65.008-145.2-145.2-145.2s-145.2 65.008-145.2 145.2c0 80.192 65.008 145.2 145.2 145.2s145.2-65.008 145.2-145.2zM290.4 448c0-80.192-65.008-145.2-145.2-145.2s-145.2 65.008-145.2 145.2c0 80.192 65.008 145.2 145.2 145.2s145.2-65.008 145.2-145.2z" />
<glyph unicode="&#xe944;" glyph-name="preview" d="M0 448l512-512 73.2 36.4-424.4 424.4h863.2v102.4h-863.2l424.4 424.4-73.2 36.4-512-512z" />
<glyph unicode="&#xe945;" glyph-name="next" d="M1024 448l-512 512-73.2-36.4 424.4-424.4h-863.2v-102.4h863.2l-424.4-424.4 73.2-36.4 512 512z" />
<glyph unicode="&#xe946;" glyph-name="ol" d="M64 704h64v256h-128v-64h64v-192zM768 384h-448v-64h448v64zM320 960v-64h704v64h-704zM768 768h-448v-64h448v64zM0 128h128v-19.2l-32-12.8v-64l32-12.8v-19.2h-128v-64h192v256h-192v-64zM320 512h704v64h-704v-64zM320 128h704v64h-704v-64zM0 512h128l-128-128v-64h192v64h-128l128 128v64h-192v-64zM320-64h448v64h-448v-64z" />
<glyph unicode="&#xe947;" glyph-name="pin" d="M666.4 744l148-148c-108-91.2-210.4-278.8-250.4-432.4l-330 330c148 39.6 341.2 142 432.4 250.4zM603.6 960c-5.6 0-11.2 0-17.2-5.6l-17.2-17.2c-11.2-11.2-11.2-22.8 0-28.4l40-40c-5.6-5.6-5.6-11.2-11.2-17.2-51.2-102-341.2-261.2-483.6-261.2-5.6 0-17.2 0-22.8-5.6-11.2-5.6-22.8-17.2-28.4-34-5.6-11.2-5.6-28.4 0-45.6 0-5.6 5.6-11.2 11.2-17.2l193.6-193.6-267.2-358.4 358.4 273.2 193.6-193.6c5.6-5.6 11.2-11.2 17.2-11.2 5.6 0 11.2-5.6 22.8-5.6 5.6 0 17.2 0 22.8 5.6 17.2 5.6 28.4 17.2 34 34 0 5.6 5.6 11.2 5.6 22.8 0 142.4 153.6 432.4 261.6 483.6 5.6 0 11.2 5.6 17.2 11.2l40-40c0-11.2 5.6-17.2 11.2-17.2s11.2 0 17.2 5.6l17.2 17.2c5.6 11.2 5.6 28.4 0 34l-398.8 398.8c-5.6 5.6-11.2 5.6-17.2 5.6v0z" />
<glyph unicode="&#xe948;" glyph-name="profile" d="M520.8 900.4c-282.8 4.8-516-220.4-520.8-502.8-2.8-160.4 68.8-304.4 182.4-400.4 7.6 6.4 15.2 12.4 24.4 17.2l152.8 83.2c20 10.8 32.4 32 32.4 54.8v62.4c0 0-44.8 53.6-62 128.4-14.4 9.2-23.6 24.8-23.6 43.2v68.4c0 15.2 6.8 28.4 17.2 38v99.2c0 0-20.4 154 188.4 154s188.4-154 188.4-154v-99.2c10.4-9.6 17.2-22.8 17.2-38v-68.4c0-23.2-15.6-42.4-36.4-48.8-11.6-36.4-28.4-70.8-50.8-102.4-5.6-8-10.8-14.8-15.6-20v-64c0-23.6 13.2-45.2 34.4-56l163.6-82c10-4.8 18.8-11.2 26.8-18 110.4 92 181.6 229.6 184.4 384.4 4.8 282.8-220.4 516-503.2 520.8v0z" />
<glyph unicode="&#xe949;" glyph-name="quote" d="M0 128h128l-128-128 64-64 192 192v256h-256v-256zM1024 896l-64 64-192-192v-256h256v256h-128l128 128zM320 128h128l-128-128 64-64 192 192v256h-256v-256zM640 960l-192-192v-256h256v256h-128l128 128-64 64z" />
<glyph unicode="&#xe94a;" glyph-name="read" d="M995.6 692.8l-443.6 256c-11.2 0-22.8 11.2-34 11.2-5.6 0-22.8-11.2-28.4-11.2l-449.6-262c-22.8-11.2-40-45.2-40-68v-625.6c0-34 22.8-56.8 56.8-56.8h910.4c28.4 0 56.8 28.4 56.8 56.8v625.6c0 28.4-5.6 62.4-28.4 74zM517.6 834.8l386.8-216-386.8-227.6-386.8 216 386.8 227.6zM910.4 38.4h-796.8v432.4l341.2-182c17.2-5.6 45.6-11.2 56.8-11.2s40 0 56.8 11.2l341.2 182 0.8-432.4z" />
<glyph unicode="&#xe94b;" glyph-name="redirect" d="M967.2 903.2c-17.2 0-910.4 0-910.4 0-28.4 0-56.8-22.8-56.8-56.8 0-17.2 0-608.8 0-796.4 0-34 22.8-56.8 56.8-56.8h910.4c34 0 56.8 22.8 56.8 56.8v796.4c0 34-22.8 56.8-56.8 56.8zM836.4 516.4l74 45.6v-455.2h-796.8v454.8l102.4-62.4 40 96.8-142.4 79.6v113.6h796.4v-113.6l-119.6-62.4 46-96.8zM568.8 658.4c-17.2 11.2-62.4 22.8-79.6 5.6-17.2-11.2-17.2-56.8 0-74 0 0 40-45.6 79.6-85.2h-284.4v-113.6h284.4l-91.2-85.2c-17.2-11.2-11.2-56.8 5.6-68.4 17.2-11.2 56.8-17.2 74-5.6l159.2 159.2c17.2 11.2 17.2 91.2 0 108l-147.6 159.2z" />
<glyph unicode="&#xe94c;" glyph-name="rules" d="M0 474l166.4-247.6h62v499.6h-62l-166.4-252zM857.6 337.2l166.4 252-166.4 247.6h-295.2v55.6l-60 55.6h-104l-57.2-55.6v-777.2h-54.8v-167.2h332.4v167.2h-56.4v222h295.2zM562 726h218l92.8-137.6-92.8-140h-217.6v277.6z" />
<glyph unicode="&#xe94d;" glyph-name="sent" d="M1024 448l-418.4-412.8-90.8 90.8 327.2 321.6-327.2 321.6 90.8 90.8 418.4-412zM672.8 448l-418-412.8-90.8 90.8 261.6 257.2h-425.6v128.8h425.6l-262 257.6 90.8 90.8 418.4-412.4z" />
<glyph unicode="&#xe94e;" glyph-name="settings" d="M874.4 568.4c-16.4 49.6-42.8 94.8-76.8 133.2l49.2 144-158 91.6-100-114.8c-24.8 5.2-50.4 7.6-76.8 7.6s-52-2.8-76.8-7.6l-100 114.8-158.4-91.6 49.2-144c-34-38.4-60.4-83.2-76.8-133.2l-149.2-29.2v-182.4l149.6-29.2c16.4-49.6 42.8-94.8 76.8-133.2l-49.2-144 158-91.2 100 114.8c24.8-5.2 50.4-7.6 76.8-7.6s52 2.8 76.8 7.6l100-114.8 158 91.2-49.2 144c34 38.4 60.4 83.2 76.8 133.2l149.6 29.2v182.4l-149.6 29.2zM512 243.2c-112.8 0-204.8 92-204.8 204.8s92 204.8 204.8 204.8 204.8-92 204.8-204.8-92-204.8-204.8-204.8z" />
<glyph unicode="&#xe94f;" glyph-name="spam" d="M875.6 744c-45.6-91.2-108-148-164.8-148-79.6 0-153.6 108-164.8 364-267.2-96.8-256-358.4-278.8-472 0-22.8-11.2-34-22.8-34-45.6 0-142.4 113.6-176.4 210.4-136.4-142.4-102.4-711.2 438-728 5.6 0 17.2 0 22.8 0 523.2-0.4 620 591.2 346.8 807.6zM886.8 283.2c-51.2-148-182-233.2-358.4-233.2-5.6 0-11.2 0-17.2 0-227.6 5.6-324.4 125.2-364 227.6-17.2 40-28.4 79.6-34 119.6 40-34 79.6-56.8 125.2-56.8 56.8 0 125.2 40 136.4 125.2 0 17.2 5.6 34 5.6 56.8 17.2 91.2 34 176.4 79.6 238.8 56.8-244.8 193.6-278.8 256-278.8 56.8 0 113.6 22.8 164.8 74 34.4-80 40.4-182.4 6-273.2z" />
<glyph unicode="&#xe950;" glyph-name="spam-solid" d="M710.8 596c-80 0-153.6 108-165.2 364-267.2-96.8-256-358.4-278.4-472 0-22.8-11.6-34-22.8-34-45.6 0-142.4 114-176.4 210.4-136.8-142.4-102.8-711.2 438-728.4h22.8c523.2 0 620 591.6 347.2 808-46-91.2-108.4-148-165.2-148v0z" />
<glyph unicode="&#xe951;" glyph-name="spinner" d="M113.6 448.4c0 136.4 68.4 256 170.8 324.4v-96.8c0-28.4 22.8-56.8 56.8-56.8s57.2 28.4 57.2 56.8v227.6c0 17.2-5.6 28.4-17.2 40v0c-11.2 11.2-22.8 17.2-40 17.2h-227.6c-34 0-56.8-22.8-56.8-56.8s28.4-56.8 56.8-56.8h79.6c-119.2-97.2-193.2-239.6-193.2-398.8 0-284.4 227.6-512 512-512v113.6c-222 0-398.4 176.4-398.4 398.4zM910.4 50h-79.6c113.6 96.8 193.6 238.8 193.6 398.4 0 284.4-227.6 512-512 512v-113.6c222 0 398.4-176.4 398.4-398.4 0-136.4-68.4-256-170.8-324.4v96.8c0 28.4-22.8 56.8-56.8 56.8s-56.8-28.4-56.8-56.8v-227.6c0-17.2 5.6-28.4 17.2-40v0c11.2-11.2 22.8-17.2 40-17.2h227.6c28.4 0 56.8 22.8 56.8 56.8-0.8 34.8-29.2 57.2-57.6 57.2z" />
<glyph unicode="&#xe952;" glyph-name="style" d="M1024 704v256h-896v-64h-128v-320h512v-128h-64v-512h192v512h-64v192h-512v192h64v-128z" />
<glyph unicode="&#xe953;" glyph-name="tag" d="M512 619.2c-96.8 0-170.8-79.6-170.8-170.8s74-170.8 170.8-170.8 170.8 74 170.8 170.8-74 170.8-170.8 170.8zM512 391.6c-34 0-56.8 22.8-56.8 56.8 0 28.4 22.8 56.8 56.8 56.8s56.8-22.8 56.8-56.8-22.8-56.8-56.8-56.8zM978.4 642l-420.8 307.2c-11.2 5.6-28.4 11.2-45.6 11.2s-34-5.6-45.6-11.2l-420.8-307.2c-22.8-17.2-45.6-57.2-45.6-91.2v-557.6c0-28.4 22.8-56.8 56.8-56.8h910.4c28.4 0 56.8 22.8 56.8 56.8v557.6c0 34-22.8 74-45.6 91.2zM910.4 50h-796.8v506.4l398.4 284.4 398.4-284.4v-506.4z" />
<glyph unicode="&#xe954;" glyph-name="tag-star" d="M978.4 641.6l-420.8 307.2c-11.6 5.6-28.4 11.2-45.6 11.2s-34-5.6-45.6-11.2l-420.8-307.2c-22.8-17.2-45.6-57.2-45.6-91.2v-563.2c0-28.4 28.4-51.2 56.8-51.2h910.4c28.4 0 56.8 22.8 56.8 51.2v563.2c0 34-22.8 74-45.6 91.2zM910.4 49.6h-796.8v500.8l398.4 290 398.4-290v-500.8zM557.6 414l-45.6 90.8-45.6-91.2-102.4-16.8 74-74-17.2-102.4 91.2 56.8 91.2-56.8-17.2 102.4 74 74-102.4 17.2z" />
<glyph unicode="&#xe955;" glyph-name="thru" d="M1024 704v170.8h-1024v-170.8h426.8v-256h-426.8v-85.2h426.8v-341.6h153.6v341.6h443.6v85.2h-443.6v256z" />
<glyph unicode="&#xe956;" glyph-name="ul" d="M0 320h256v256h-256v-256zM832 384h-448v-64h448v64zM0 704h256v256h-256v-256zM896 768h-512v-64h512v64zM0-64h256v256h-256v-256zM384-64h448v64h-448v-64zM384 960v-64h640v64h-640zM384 512h640v64h-640v-64zM384 128h640v64h-640v-64z" />
<glyph unicode="&#xe957;" glyph-name="underlay" d="M378.8 448c122.8 0 245.6 10.4 307.2 51.2 10.4 10.4 30.8 0 30.8-20.4v-338h204.8v819.2h-204.8v-276.4c0-20.4-10.4-30.8-30.8-30.8h-338c-20.4 0-40.8 20.4-40.8 40.8v266.4h-204.8v-235.6c0-153.6 122.8-276.4 276.4-276.4zM102.4 38.4v-102.4h819.2v102.4h-819.2z" />
<glyph unicode="&#xe958;" glyph-name="redo" d="M0 448c0-249.6 198.4-448 448-448 19.2 0 44.8 0 64 6.4v115.2c-19.2-6.4-44.8-6.4-64-6.4-179.2 0-332.8 147.2-332.8 332.8 0 179.2 153.6 332.8 332.8 332.8s332.8-147.2 332.8-332.8h-140.8l192-192 192 192h-128c0 249.6-198.4 448-448 448s-448-198.4-448-448z" />
<glyph unicode="&#xe959;" glyph-name="undo" d="M576 896c-249.6 0-448-198.4-448-448h-128l192-192 192 192h-140.8c0 185.6 153.6 332.8 332.8 332.8s332.8-153.6 332.8-332.8c0-185.6-153.6-332.8-332.8-332.8-19.2 0-44.8 0-64 6.4v-115.2c19.2-6.4 44.8-6.4 64-6.4 249.6 0 448 198.4 448 448s-198.4 448-448 448z" />
<glyph unicode="&#xe95a;" glyph-name="unlink" d="M966.4 819.2l-89.6 89.6c-38.4 38.4-83.2 51.2-128 51.2s-96-19.2-128-51.2l-128-128c-19.2-19.2-32-32-38.4-44.8l76.8-76.8c0 19.2 12.8 32 19.2 44.8l128 128c19.2 19.2 38.4 25.6 64 25.6s44.8-6.4 64-25.6l89.6-89.6c19.2-19.2 25.6-38.4 25.6-64s-6.4-44.8-25.6-64l-128-128c-12.8-12.8-32-19.2-44.8-19.2l76.8-76.8c12.8 6.4 25.6 19.2 38.4 32l128 128c70.4 76.8 70.4 198.4 0 268.8zM467.2 192l-128-128c-19.2-19.2-38.4-25.6-64-25.6s-44.8 6.4-64 25.6l-89.6 89.6c-19.2 19.2-25.6 38.4-25.6 64s6.4 44.8 25.6 64l128 128c6.4 6.4 12.8 6.4 19.2 12.8l-70.4 57.6c0 0-6.4-6.4-12.8-12.8l-128-128c-70.4-70.4-70.4-192 0-262.4l89.6-89.6c38.4-38.4 83.2-51.2 128-51.2s96 19.2 128 51.2l128 128c6.4 6.4 6.4 12.8 12.8 19.2l-70.4 70.4c0 0-6.4-6.4-6.4-12.8z" />
<glyph unicode="&#xe95b;" glyph-name="unread" d="M961.6 903.6h-893.2c-34.4 0-68.4-22.8-68.4-56.8v-796.4c0-34 11.2-45.6 56.8-56.8h910.4c28.4 11.2 56.8 22.8 56.8 56.8v790.4c0 34.4-28.4 62.8-62.4 62.8zM910.4 107.2h-796.8v454.8l347.2-204.8c0 0 22.8-11.2 51.2-11.2 22.8 0 56.8 17.2 56.8 17.2l341.2 199.2 0.4-455.2zM910.4 693.2l-398.4-227.6-398.4 227.6v96.4h796.4l0.4-96.4z" />
<glyph unicode="&#xe95c;" glyph-name="unread-solid" d="M921.6 857.6h-819.2c-56.4 0-102.4-46-102.4-102.4v-614.4c0-56.4 46-102.4 102.4-102.4h818.8c56.4 0 102.4 46.4 102.4 102.4v614.4c0.4 56.4-45.6 102.4-102 102.4v0zM921.6 652.8l-409.6-256-409.6 256v102.4l409.6-256 409.6 256v-102.4z" />
<glyph unicode="&#xe95d;" glyph-name="up" d="M960 448l-448 512-448-512 128-64 256 307.2v-755.2h128v755.2l256-307.2z" />
<glyph unicode="&#xe95e;" glyph-name="write" d="M303.2 186.8l210.4 79.6 478 478c34 34 34 96.8 0 130.8s-96.8 34-130.8 0l-478-478-79.6-210.4zM906.4 50h-796.8v796.8h369.6l113.6 113.6h-596.8v-1024h1024v546l-113.6-113.6v-318.8z" />
<glyph unicode="&#xe95f;" glyph-name="upload" d="M307.2 532.292l409.6-20.658v-370.833h-409.6zM34.133 72.533h955.733v-136.533h-955.733v136.533zM513.358 898.433l-416.092-415.375h832.183z" />
<glyph unicode="&#xe960;" glyph-name="add-group-2" d="M830.8 354.8c30.4 12 56 38.4 72.4 73.6 15.2-1.6 32 10.8 39.6 31.6 8.8 23.2 2.4 47.2-14 53.6-2.4 0.8-4.8 0.4-6.8 0.4v2.4c0 92.8-56.8 168.4-126.4 168.4-70 0-126.4-75.2-126.4-168.4v-2c-3.6 0.4-7.2 0.4-10.4-0.8-16.4-6-22.4-30-14-53.6 8.4-22.4 27.2-35.6 42.8-31.6 16.4-35.2 41.6-61.6 72-73.6-9.2-0.4-16.4-1.6-24.8-2.4l-26.4-2.4c-12 13.2-87.6 88.8-296.4 100.8 47.2 18.4 86.8 59.2 112 113.6 23.2-2.4 49.2 16.8 61.2 48.8 13.6 36 4 73.2-21.2 82.4-3.6 1.2-7.2 0.8-10.8 0.8 0 1.2 0.4 2.4 0.4 3.6 0 143.6-87.6 260-195.6 260s-195.6-116.4-195.6-260c0-1.2 0.4-2 0.4-3.2-5.6 0.4-10.8 0.8-16-1.2-25.2-9.6-34.8-46.4-21.2-82.4 12.8-34.4 42-54.8 66.4-48.4 25.2-54.4 64.4-95.2 111.2-113.6-233.2-12.4-303.2-105.2-303.2-105.2v-167.6h395.2v24.4h118v124h193.2v-124h114.8v-24.4h202.8v109.6c0 0-44.8 58.4-193.2 66.8zM774.8 150.4h-120.4v120.4h-93.6v-120.4h-120.4v-94h120.4v-120.4h93.6v120.4h120.4z" />
<glyph unicode="&#xe961;" glyph-name="brush" d="M1000.8 942c-24 24-63.6 24-88 0l-311.6-311.6-40.8 40.8c-35.2 35.2-92.8 35.2-128.4 0l-38-38 297.2-297.2 38 38c35.2 35.2 35.2 92.8 0 128.4l-40.8 40.8 311.6 311.6c25.2 23.2 25.2 62.8 0.8 87.2zM124 480.8c-46-7.6-118.4-2-118.4-2s-29.6-143.2 46.4-250c124-174.4 359.6-292.8 359.6-292.8s80.8 63.2 124 124c59.6 83.6 112 241.2 112 241.2l-296 296c0 0-150-103.6-227.6-116.4z" />
<glyph unicode="&#xe962;" glyph-name="thems" d="M455.111 960v-1024l568.889 113.778v796.444zM341.333 846.222h-113.778v-796.444h113.778v796.444zM113.778 732.444h-113.778v-568.889h113.778v568.889z" />
<glyph unicode="&#xe963;" glyph-name="circle" d="M372 634h69.6v-74c0-17.2 13.2-34.8 34.8-34.8 17.2 0 26.4 13.2 34.8 21.6l156.4 160.8c13.2 13.2 21.6 17.2 21.6 34.8 0 17.2-8.4 21.6-21.6 34.8l-156 161.2c-8.8 8.4-17.2 21.6-34.8 21.6s-34.8-17.2-39.2-34.8v-69.6c-357.2 0-357.2-461.2-357.2-461.2 0-3.6 0.8-7.2 2-10.8 23.2 79.6 142.8 250.4 289.6 250.4zM652 262h-69.6v74c0 17.2-13.2 34.8-34.8 34.8-17.2 0-26.4-13.2-34.8-21.6l-156.4-160.8c-13.2-13.2-21.6-17.2-21.6-34.8 0-17.2 8.4-21.6 21.6-34.8l156.4-160.8c8.8-8.4 17.2-21.6 34.8-21.6s34.8 17.2 39.2 34.8v69.6c357.2 0 357.2 461.2 357.2 461.2 0 3.6-0.8 7.2-2 10.8-23.6-80-143.2-250.8-290-250.8z" />
<glyph unicode="&#xe964;" glyph-name="compose-minimize-up" d="M64 896h896v-256h-896v256z" />
<glyph unicode="&#xe965;" glyph-name="compose-minimize-down" d="M64 256h896v-256h-896v256z" />
<glyph unicode="&#xe966;" glyph-name="compose-minimize" d="M954.758 585.509l-377.905-54.126 54.613 377.417 97.036-97.036 148.236 148.236 129.219-128.731-148.724-148.724zM166.766 213.455l-148.724-148.724 129.219-128.731 148.236 148.236 97.036-97.036 54.613 377.417-377.905-54.126z" />
<glyph unicode="&#xe967;" glyph-name="compose-max" d="M169.691 216.381l128.731-129.219 97.036-97.036-377.417-54.126 54.126 377.417zM169.559 216.411l148.607 148.607 128.953-128.953-148.607-148.607-128.953 128.953zM576.853 660.114l148.724 148.724-97.036 97.036 377.417 54.126-54.126-377.417-97.524 97.036-148.236-148.236z" />
<glyph unicode="&#xe968;" glyph-name="compose-document" d="M331.093 526.507h360.107c11.947 0 22.187 10.24 22.187 22.187s-10.24 22.187-22.187 22.187h-360.107c-11.947 0-22.187-10.24-22.187-22.187 1.707-11.947 10.24-22.187 22.187-22.187zM331.093 642.56h145.067c11.947 0 22.187 10.24 22.187 22.187s-10.24 22.187-22.187 22.187h-145.067c-11.947 0-22.187-10.24-22.187-22.187s10.24-22.187 22.187-22.187zM331.093 412.16h360.107c11.947 0 22.187 10.24 22.187 22.187s-10.24 22.187-22.187 22.187h-360.107c-11.947 0-22.187-10.24-22.187-22.187s10.24-22.187 22.187-22.187zM331.093 296.107h360.107c11.947 0 22.187 10.24 22.187 22.187s-10.24 22.187-22.187 22.187h-360.107c-11.947 0-22.187-10.24-22.187-22.187s10.24-22.187 22.187-22.187zM331.093 181.76h360.107c11.947 0 22.187 10.24 22.187 22.187s-10.24 22.187-22.187 22.187h-360.107c-11.947 0-22.187-10.24-22.187-22.187s10.24-22.187 22.187-22.187zM650.24 901.973h-498.347v-907.947h720.213v684.373l-221.867 223.573zM610.987 830.293l189.44-189.44v-575.147h-576.853v764.587h387.413z" />
<glyph unicode="&#xe969;" glyph-name="compose-delete" d="M904.105 927.478h-252.562c-1.802 18.251-17.211 32.522-35.945 32.522h-207.197c-18.741 0-34.142-14.271-35.955-32.522h-252.552c-19.961 0-36.139-16.178-36.139-36.144v-68.661c0-19.968 16.178-36.141 36.139-36.141h784.212c19.961 0 36.139 16.175 36.139 36.141v68.66c0 19.968-16.178 36.146-36.139 36.146zM159.523-27.861c0-19.95 16.171-36.139 36.139-36.139h632.681c19.968 0 36.139 16.187 36.139 36.139v744.968h-704.96v-744.968z" />
<glyph unicode="&#xe96a;" glyph-name="compose-attach-add" d="M227.321 51.317c38.84-40.045 77.982-49.077 105.381-49.077 1.505 0 2.71 0 4.215 0 63.53 2.108 108.994 49.68 118.026 59.916l511.849 518.774 2.409 3.613c2.71 4.215 62.024 100.864-56.002 220.697-57.207 58.411-110.499 88.219-158.974 88.52-29.507 0-51.486-11.742-62.626-22.582l-450.729-446.513c-25.592-25.592-33.722-59.013-17.764-75.272s49.68-8.43 75.272 17.162l448.621 444.406c9.334 3.914 45.765 0.602 108.091-62.927 61.723-62.927 50.282-106.585 46.368-117.123l-507.333-514.258c-7.828-8.732-33.421-31.915-59.916-32.517-15.657-0.301-31.614 7.527-47.572 24.087-15.355 15.958-22.883 31.313-22.281 46.368 0.903 24.99 22.281 44.862 22.281 44.862l368.231 382.081c7.226 6.624 18.969 10.839 34.625-5.118 3.613-3.613 9.936-9.936-1.505-22.281l-283.324-283.324c-25.592-25.592-33.421-59.314-17.463-75.272s49.68-8.129 75.272 17.463l283.324 283.324c28.001 28.001 51.787 88.219 1.807 138.199-56.002 56.002-120.134 34.324-149.641 6.022l-367.327-380.876c-9.033-8.43-46.368-46.066-48.475-101.166-1.204-26.496 6.022-66.54 45.163-107.187zM108.091 893.761h74.068v-215.278h-74.068v215.278zM252.663 823.047v-74.068h-215.278v74.068h215.278z" />
<glyph unicode="&#xe96b;" glyph-name="compose-attach" d="M102.038-7.628c44.504-46.046 89.664-56.372 121.168-56.372 1.618 0 3.199 0.038 4.758 0.076 73.131 2.428 125.159 57.088 135.579 68.898l587.963 595.806 2.69 4.195c2.971 4.682 71.381 115.905-64.291 253.607-65.948 66.94-127.21 101.062-182.942 101.419-33.724 0-59.287-13.356-72.041-25.975l-517.592-512.705c-29.512-29.249-38.635-67.902-20.351-86.355s57.029-9.707 86.562 19.542l515.109 510.261c10.72 4.627 52.627 0.526 124.236-72.173 71.063-72.135 57.8-122.486 53.194-134.354l-582.769-590.709c-8.822-10.157-38.372-36.66-68.825-37.47-17.869-0.263-36.359 8.559-54.809 27.648-17.55 18.169-26.182 36.038-25.636 53.097 0.903 28.648 25.636 51.614 25.618 51.614l422.948 438.88c8.258 7.542 21.78 12.377 39.932-5.792 4.271-4.25 11.398-11.381-1.881-25.674l-325.479-325.496c-29.381-29.381-38.313-68.088-19.937-86.448s57.067-9.424 86.448 19.957l325.496 325.479c32.275 32.258 59.401 101.156 1.919 158.659-64.16 64.198-137.986 39.254-171.973 6.809l-421.278-437.265c-10.513-9.742-53.156-53.063-55.788-116.278-1.241-30.207 6.733-76.046 51.97-122.88z" />
<glyph unicode="&#xe96c;" glyph-name="icon-screpka" d="M413.071 680.325h59.187v-411.534h-59.187v411.534zM616.024 759.249c0-22.4-59.191-25.219-59.191 0 0 63.977-42.272 103.085-105.688 103.085-69.851 0-105.709-39.108-105.709-103.085 0-24.392-59.19-26.715-59.19 0 0 63.977 43.366 159.151 164.899 159.151 132.467 0 164.879-95.174 164.879-159.151zM413.071 269.396c0 22.414 59.187 25.221 59.187 0 0-22.431 15.985-36.416 42.299-36.416 23.492 0 42.275 13.562 42.275 36.415 0 24.415 59.191 26.72 59.191 0 0-36.645-29.594-92.472-101.467-92.472-71.889 0.003-101.485 55.827-101.485 92.474zM286.245 202.467c0 22.415 59.19 25.222 59.19 0 0-102.193 67.639-167.507 169.123-167.507 101.467 0 169.126 65.315 169.126 167.507 0 24.393 59.191 26.719 59.191 0 0-102.193-59.191-223.587-228.317-223.587-169.123 0-228.312 121.394-228.312 223.587zM556.833 759.249h59.191v-490.458h-59.191v490.458zM286.245 759.249h59.19v-569.37h-59.19v569.37zM683.684 680.325h59.191v-490.446h-59.191v490.446z" />
<glyph unicode="&#xe96d;" glyph-name="icon-mail-light" d="M844.015 564.407l-333.004-207.187-330.19 207.187v79.017l333-207.178 330.194 207.178zM982.177 153.627c0-28.827-23.369-52.195-52.195-52.195h-835.127c-28.824 0-52.197 23.369-52.197 52.195v588.032c0 28.823 23.372 52.195 52.197 52.195h835.127c28.827 0 52.195-23.372 52.195-52.195v-588.032zM913.167 678.252c0 27.665-22.429 50.095-50.092 50.095h-701.312c-27.665 0-50.094-22.429-50.094-50.095v-461.22c0-27.665 22.428-50.095 50.094-50.095h701.312c27.661 0 50.092 22.429 50.092 50.095v461.22z" />
<glyph unicode="&#xe96e;" glyph-name="icon-flag-light" d="M85.889 746.313h83.639v-748.562h-83.639v748.562zM219.709 792.307c0-50.817-41.206-92.009-92.009-92.009s-92.009 41.193-92.009 92.009c0 50.812 41.206 92.008 92.009 92.008s92.009-41.194 92.009-92.008zM975.21 300.143c0 0-82.454-83.246-208.782-83.246-126.327 0-168.059 108.152-308.774 108.152s-231.018-108.339-231.018-108.339v474.426c0 0 80.34 103.639 226.036 103.639 179.319 0 202.98-107.375 321.28-107.375s201.257 87.169 201.257 87.169v-474.426zM891.724 628.877c0 0-46.792-27.396-137.696-27.396s-194.263 98.817-290.148 98.817c-95.886 0-154.29-62.705-154.29-62.705v-261.49c0 0 32.253 38.602 159.272 38.602 139.47 0 206.715-100.867 297.619-100.867s125.244 49.81 125.244 49.81v265.228z" />
</font>
</defs>
</svg>
