<?xml version="1.0" encoding="utf-8"?>
<!-- Generator: Adobe Illustrator 21.0.2, SVG Export Plug-In . SVG Version: 6.00 Build 0)  -->
<svg version="1.1" id="Layer_1" xmlns="http://www.w3.org/2000/svg" xmlns:xlink="http://www.w3.org/1999/xlink" x="0px" y="0px"
	 viewBox="0 0 12 12" style="enable-background:new 0 0 12 12;" xml:space="preserve">
<style type="text/css">
	.st0{fill:#ECECEC;}
	.st1{fill-rule:evenodd;clip-rule:evenodd;fill:#8E8E8E;}
</style>
<path class="st0" d="M9.5,1.5c0.6,0,1,0.4,1,1v7c0,0.6-0.4,1-1,1h-7c-0.6,0-1-0.4-1-1v-7c0-0.6,0.4-1,1-1H9.5 M9.5,0.5h-7
	c-1.1,0-2,0.9-2,2v7c0,1.1,0.9,2,2,2h7c1.1,0,2-0.9,2-2v-7C11.5,1.4,10.6,0.5,9.5,0.5L9.5,0.5z"/>
<path class="st1" d="M2.5,6.5v-1h7v1H2.5z"/>
</svg>
