<?xml version="1.0" encoding="iso-8859-1"?>
<!-- Generator: Adobe Illustrator 19.2.1, SVG Export Plug-In . SVG Version: 6.00 Build 0)  -->
<svg version="1.1" id="Layer_1" xmlns="http://www.w3.org/2000/svg" xmlns:xlink="http://www.w3.org/1999/xlink" x="0px" y="0px"
	 viewBox="0 0 256 256" style="enable-background:new 0 0 256 256;" xml:space="preserve">
<g>
	<path d="M228.517,170.564l-97.335-97.335c-6.817-7.04-15.13-10.564-24.961-10.564c-9.156,0-16.919,3.185-23.283,9.549
		c-6.377,6.367-9.559,14.137-9.559,23.296c0,9.829,3.524,18.152,10.552,24.961l68.7,68.687c1.116,1.116,2.349,1.678,3.686,1.678
		c1.786,0,4.406-1.738,7.871-5.192c3.465-3.465,5.192-6.095,5.192-7.881c0-1.337-0.563-2.56-1.678-3.686l-68.687-68.69
		c-2.791-3.01-4.187-6.305-4.187-9.878c0-3.244,1.064-5.925,3.182-8.043c2.118-2.128,4.809-3.185,8.043-3.185
		c3.794,0,7.148,1.337,10.05,4.018l97.345,97.345c7.038,7.028,10.554,15.122,10.554,24.288c0,7.151-2.349,13.063-7.04,17.754
		c-4.688,4.699-10.613,7.048-17.762,7.048c-9.156,0-17.25-3.524-24.288-10.565L44.903,93.993
		c-8.495-8.485-12.731-18.597-12.731-30.323c0-11.839,4.077-21.949,12.23-30.323c8.151-8.374,18.142-12.562,29.992-12.562
		c11.384,0,21.497,4.298,30.321,12.893l101.522,101.692c1.116,1.126,2.401,1.678,3.856,1.678c1.789,0,4.39-1.707,7.794-5.11
		c3.403-3.406,5.1-6.005,5.1-7.794c0-1.334-0.553-2.57-1.666-3.683L119.957,18.939C107.115,6.316,91.862,0,74.221,0
		C56.46,0,41.438,6.197,29.149,18.597c-12.279,12.4-18.425,27.48-18.425,45.232c0,17.433,6.305,32.562,18.926,45.404l130.18,130.01
		C171.003,250.417,184.128,256,199.198,256c13.073,0,24.018-4.419,32.845-13.243c8.824-8.817,13.233-19.762,13.233-32.835
		C245.276,194.62,239.693,181.498,228.517,170.564L228.517,170.564z M228.517,170.564"/>
</g>
</svg>
