<?xml version="1.0" encoding="iso-8859-1"?>
<!-- Generator: Adobe Illustrator 19.2.1, SVG Export Plug-In . SVG Version: 6.00 Build 0)  -->
<svg version="1.1" id="Layer_1" xmlns="http://www.w3.org/2000/svg" xmlns:xlink="http://www.w3.org/1999/xlink" x="0px" y="0px"
	 viewBox="79 269 256 256" style="enable-background:new 79 269 256 256;" xml:space="preserve">
<g>
	<path d="M120.476,336.365c2.087,39.22,10.219,174.44,10.601,180.788l0.472,7.847h150.903l0.472-7.847
		c0.382-6.349,8.514-141.568,10.601-180.788H120.476z M162.801,499.545l-7.299-139.79l16.673-0.87l7.299,139.79L162.801,499.545z
		 M215.348,499.109h-16.696V359.097h16.696V499.109z M251.197,499.545l-16.673-0.87l7.302-139.79l16.673,0.87L251.197,499.545z"/>
	<path d="M304.391,319.113v-27.852h-67.229V269H176.84l-0.002,22.261h-67.229v27.852H304.391z M193.534,285.696h26.933v5.565
		h-26.933V285.696z"/>
</g>
</svg>
