<?xml version="1.0" encoding="utf-8"?>
<!-- Generator: Adobe Illustrator 19.2.1, SVG Export Plug-In . SVG Version: 6.00 Build 0)  -->
<svg version="1.1" id="svgicon-mail--MainToolbar-MagicFolder"
	 xmlns="http://www.w3.org/2000/svg" xmlns:xlink="http://www.w3.org/1999/xlink" x="0px" y="0px" viewBox="0 0 256 256"
	 style="enable-background:new 0 0 256 256;" xml:space="preserve">
<style type="text/css">
	.st0{fill:#F3B763;}
</style>
<path class="st0" d="M241.8,14.2h-99.6C142.2,5.7,135.1,0,128,0H14.2C7.1,0,0,5.7,0,14.2v227.6c0,8.5,5.7,14.2,14.2,14.2h227.6
	c7.1,0,14.2-5.7,14.2-14.2V28.4C256,19.9,250.3,14.2,241.8,14.2z M227.6,227.6H28.4v-128h199.1v128H227.6z M227.6,71.1H28.4V28.4
	h85.3v14.2h113.8v28.5H227.6z M105.2,199.1l22.8-12.8l22.8,12.8l-4.3-25.6L165,155l-25.6-4.3L128,128l-11.4,22.8L91,155l18.5,18.5
	L105.2,199.1z"/>
</svg>
