<?xml version="1.0" encoding="utf-8"?>
<!-- Generator: Adobe Illustrator 19.2.1, SVG Export Plug-In . SVG Version: 6.00 Build 0)  -->
<svg version="1.1" id="Layer_1" xmlns="http://www.w3.org/2000/svg" xmlns:xlink="http://www.w3.org/1999/xlink" x="0px" y="0px"
	 viewBox="0 0 256 256" style="enable-background:new 0 0 256 256;" xml:space="preserve">
<style type="text/css">
	.st0{fill:#859DC6;}
</style>
<path class="st0" d="M17.1,152.1c15.6-24.2,51.2-61.2,99.6-61.2V68.2c1.4-5.7,7.1-11.4,12.8-11.4c5.7,0,8.5,4.3,11.4,7.1l51.2,52.6
	c4.3,4.3,7.1,5.7,7.1,11.4s-2.8,7.1-7.1,11.4l-51.2,52.6c-2.8,2.8-5.7,7.1-11.4,7.1c-7.1,0-11.4-5.7-11.4-11.4v-24.2H95.3
	c-22.8,1.4-62.6,19.9-66.8,35.6v28.4h199.1V28.3H28.4v56.9H0V14.1C0,5.6,5.7-0.1,14.2-0.1h227.6c7.1,0,14.2,5.7,14.2,14.2v227.6
	c0,7.1-5.7,14.2-14.2,14.2H14.2c-7.1,0-14.2-7.1-14.2-14.2c0,0,0-41.2,0-54C0,177.7,11.4,160.6,17.1,152.1z"/>
</svg>
