<?xml version="1.0" encoding="iso-8859-1"?>
<!-- Generator: Adobe Illustrator 19.2.1, SVG Export Plug-In . SVG Version: 6.00 Build 0)  -->
<svg version="1.1" id="Layer_1" xmlns="http://www.w3.org/2000/svg" xmlns:xlink="http://www.w3.org/1999/xlink" x="0px" y="0px"
	 viewBox="0 0 256 256" style="enable-background:new 0 0 256 256;" xml:space="preserve">
<g>
	<g>
		<path d="M252.634,120.12L165.61,32.57c-7.383-7.386-19.513-1.056-19.513,8.437v39.557c-45.359,2.112-81.226,15.823-107.069,41.668
			C0,161.26,0,212.946,0,215.055c0,5.802,4.746,11.605,11.605,11.605c4.218,0,7.911-2.11,10.02-5.802
			c22.678-40.085,81.222-45.884,114.449-45.884h10.024v40.082c0,9.495,12.129,15.297,19.513,7.911c0,0,83.335-82.804,87.025-86.497
			C256.856,132.252,257.38,124.868,252.634,120.12L252.634,120.12z M169.303,187.103v-22.678c0-5.802-4.746-11.077-10.548-11.604
			c-0.528,0-8.967-1.056-22.681-1.056c-28.48,0-73.311,4.221-106.009,26.899c12.129-32.699,43.775-75.421,127.634-75.421
			c6.33,0,11.605-5.274,11.605-11.604V68.434l59.069,59.597L169.303,187.103z M169.303,187.103"/>
	</g>
</g>
</svg>
