<?xml version="1.0" encoding="utf-8"?>
<!-- Generator: Adobe Illustrator 19.2.1, SVG Export Plug-In . SVG Version: 6.00 Build 0)  -->
<svg version="1.1" id="cke_svgicon--maximize" xmlns="http://www.w3.org/2000/svg" xmlns:xlink="http://www.w3.org/1999/xlink"
	 x="0px" y="0px" viewBox="0 0 256 256" style="enable-background:new 0 0 256 256;" xml:space="preserve">
<path d="M102.4,153.6c-5.5-5.5-16.5-5.5-21.9,0l-47.5,47.5v-25.6c0-9.1-7.3-16.5-16.5-16.5l0,0C7.3,160.9,0,166.4,0,175.5v64
	c0,9.1,7.3,16.5,16.5,16.5h64c9.1,0,16.5-7.3,16.5-16.5l0,0c0-9.1-7.3-16.5-16.5-16.5H54.9l47.5-47.5
	C107.9,170.1,107.9,160.9,102.4,153.6L102.4,153.6z M239.5,160.9L239.5,160.9c-9.1,0-16.5,7.3-16.5,16.5v23.8l-47.5-47.5
	c-5.5-5.5-16.5-5.5-21.9,0l0,0c-5.5,5.5-5.5,16.5,0,21.9l47.5,47.5h-25.6c-9.1,0-16.5,7.3-16.5,16.5l0,0c0,9.1,7.3,16.5,16.5,16.5
	h64c9.1,0,16.5-7.3,16.5-16.5v-64C256,166.4,248.7,160.9,239.5,160.9z M54.9,32.9h25.6c9.1,0,16.5-7.3,16.5-16.5l0,0
	C95.1,7.3,89.6,0,80.5,0h-64C7.3,0,0,7.3,0,16.5v64c0,9.1,7.3,16.5,16.5,16.5l0,0c9.1,0,16.5-7.3,16.5-16.5V54.9l47.5,47.5
	c5.5,5.5,16.5,5.5,21.9,0l0,0c5.5-5.5,5.5-16.5,0-21.9L54.9,32.9z M239.5,0h-64c-9.1,0-16.5,7.3-16.5,16.5l0,0
	c0,9.1,7.3,16.5,16.5,16.5h25.6l-47.5,45.7c-5.5,5.5-5.5,16.5,0,21.9l0,0c5.5,5.5,16.5,5.5,21.9,0l47.5-45.7v25.6
	c0,9.1,7.3,16.5,16.5,16.5l0,0c9.1,0,16.5-7.3,16.5-16.5v-64C256,7.3,248.7,0,239.5,0z"/>
</svg>
