<?xml version="1.0" encoding="utf-8"?>
<!-- Generator: Adobe Illustrator 19.2.1, SVG Export Plug-In . SVG Version: 6.00 Build 0)  -->
<svg version="1.1" id="cke_svgicon--italic-ru" xmlns="http://www.w3.org/2000/svg" xmlns:xlink="http://www.w3.org/1999/xlink"
	 x="0px" y="0px" viewBox="0 0 256 256" style="enable-background:new 0 0 256 256;" xml:space="preserve">
<path d="M256,0c-15.4,0-41,0-53.8,0C199.7,2.6,84.5,110.1,79.4,115.2C79.4,112.6,105,0,105,0C92.2,0,66.6,0,56.3,0
	C53.8,2.6,0,253.4,0,256c10.2,0,38.4,0,48.6,0c0-2.6,17.9-81.9,17.9-87c2.6-2.6,23-20.5,28.2-25.6c0,2.6,64,107.5,66.6,112.6
	c12.8,0,38.4,0,48.6,0c-2.6-5.1-84.5-130.6-87-135.7C125.4,120.3,256,0,256,0z"/>
</svg>
