<?xml version="1.0" encoding="utf-8"?>
<!-- Generator: Adobe Illustrator 19.2.1, SVG Export Plug-In . SVG Version: 6.00 Build 0)  -->
<svg version="1.1" id="cke_svgicon--numberedlist" xmlns="http://www.w3.org/2000/svg" xmlns:xlink="http://www.w3.org/1999/xlink"
	 x="0px" y="0px" viewBox="0 0 256 256" style="enable-background:new 0 0 256 256;" xml:space="preserve">
<path d="M16,64h16V0H0v16h16V64z M192,144H80v16h112V144z M80,0v16h176V0H80z M192,48H80v16h112V48z M0,208h32v4.8l-8,3.2v16l8,3.2
	v4.8H0v16h48v-64H0V208z M80,112h176V96H80V112z M80,208h176v-16H80V208z M0,112h32L0,144v16h48v-16H16l32-32V96H0V112z M80,256h112
	v-16H80V256z"/>
</svg>
