<?xml version="1.0" encoding="utf-8"?>
<!-- Generator: Adobe Illustrator 19.2.1, SVG Export Plug-In . SVG Version: 6.00 Build 0)  -->
<svg version="1.1" id="svgicon-mail--MainToolbar-Pin"
	 xmlns="http://www.w3.org/2000/svg" xmlns:xlink="http://www.w3.org/1999/xlink" x="0px" y="0px" viewBox="0 0 256 256"
	 style="enable-background:new 0 0 256 256;" xml:space="preserve">
<style type="text/css">
	.st0{fill:#859DC6;}
</style>
<path class="st0" d="M167.9,55.5l37,37c-27,22.8-52.6,69.7-62.6,108.1l-82.5-82.5C96.8,108.2,145.1,82.6,167.9,55.5 M152.3,1.5
	c-1.4,0-2.8,0-4.3,1.4l-4.3,4.3c-2.8,2.8-2.8,5.7,0,7.1l10,10c-1.4,1.4-1.4,2.8-2.8,4.3C138,54.1,65.5,93.9,29.9,93.9
	c-1.4,0-4.3,0-5.7,1.4c-2.8,1.4-5.7,4.3-7.1,8.5c-1.4,2.8-1.4,7.1,0,11.4c0,1.4,1.4,2.8,2.8,4.3l48.4,48.4L1.5,257.5l89.6-68.3
	l48.4,48.4c1.4,1.4,2.8,2.8,4.3,2.8c1.4,0,2.8,1.4,5.7,1.4c1.4,0,4.3,0,5.7-1.4c4.3-1.4,7.1-4.3,8.5-8.5c0-1.4,1.4-2.8,1.4-5.7
	c0-35.6,38.4-108.1,65.4-120.9c1.4,0,2.8-1.4,4.3-2.8l10,10c0,2.8,1.4,4.3,2.8,4.3s2.8,0,4.3-1.4l4.3-4.3c1.4-2.8,1.4-7.1,0-8.5
	L156.5,2.9C155.1,1.5,153.7,1.5,152.3,1.5L152.3,1.5z"/>
</svg>
