<?xml version="1.0" encoding="iso-8859-1"?>
<!-- Generator: Adobe Illustrator 19.2.1, SVG Export Plug-In . SVG Version: 6.00 Build 0)  -->
<svg version="1.1" id="Layer_1" xmlns="http://www.w3.org/2000/svg" xmlns:xlink="http://www.w3.org/1999/xlink" x="0px" y="0px"
	 viewBox="0 0 256 256" style="enable-background:new 0 0 256 256;" xml:space="preserve">
<path d="M130.188,14.864C59.5,13.663,1.22,69.986,0.019,140.65c-0.683,40.099,17.172,76.116,45.618,100.058
	c1.86-1.606,3.84-3.091,6.056-4.317l38.215-20.825c5-2.735,8.109-7.976,8.109-13.707V186.22c0,0-11.201-13.417-15.47-32.05
	c-3.563-2.289-5.924-6.249-5.924-10.76v-17.142c0-3.756,1.679-7.125,4.269-9.486V92.019c0,0-5.066-38.541,47.103-38.541
	c52.175,0,47.103,38.541,47.103,38.541v24.762c2.596,2.361,4.269,5.73,4.269,9.486v17.142c0,5.76-3.871,10.591-9.105,12.221
	c-2.923,9.081-7.143,17.734-12.71,25.614c-1.419,1.981-2.711,3.659-3.87,4.975v16.043c0,5.917,3.327,11.321,8.61,13.96l40.92,20.451
	c2.452,1.226,4.674,2.759,6.702,4.48c27.594-22.999,45.401-57.386,46.065-96.115C257.206,74.352,200.883,16.072,130.188,14.864
	L130.188,14.864z M130.188,14.864"/>
</svg>
