<?xml version="1.0" encoding="utf-8"?>
<!-- Generator: Adobe Illustrator 19.2.1, SVG Export Plug-In . SVG Version: 6.00 Build 0)  -->
<svg version="1.1" id="svgicon-mail--MainToolbar-Read"
	 xmlns="http://www.w3.org/2000/svg" xmlns:xlink="http://www.w3.org/1999/xlink" x="0px" y="0px" viewBox="0 0 256 256"
	 style="enable-background:new 0 0 256 256;" xml:space="preserve">
<style type="text/css">
	.st0{fill:#7CB878;}
</style>
<path class="st0" d="M248.9,66.8L138,2.8c-2.8,0-5.7-2.8-8.5-2.8c-1.4,0-5.7,2.8-7.1,2.8L10,68.3C4.3,71.1,0,79.6,0,85.3v156.4
	c0,8.5,5.7,14.2,14.2,14.2h227.6c7.1,0,14.2-7.1,14.2-14.2V85.3C256,78.2,254.6,69.7,248.9,66.8z M129.4,31.3l96.7,54l-96.7,56.9
	l-96.7-54L129.4,31.3z M227.6,230.4H28.4V122.3l85.3,45.5c4.3,1.4,11.4,2.8,14.2,2.8s10,0,14.2-2.8l85.3-45.5L227.6,230.4
	L227.6,230.4z"/>
</svg>
