<?xml version="1.0" encoding="utf-8"?>
<!-- Generator: Adobe Illustrator 19.2.1, SVG Export Plug-In . SVG Version: 6.00 Build 0)  -->
<svg version="1.1" id="svgicon-mail--MainToolbar-SmartForward"
	 xmlns="http://www.w3.org/2000/svg" xmlns:xlink="http://www.w3.org/1999/xlink" x="0px" y="0px" viewBox="0 0 256 256"
	 style="enable-background:new 0 0 256 256;" xml:space="preserve">
<g>
	<path d="M241.8,14.2c-4.3,0-227.6,0-227.6,0C7.1,14.2,0,19.9,0,28.4c0,4.3,0,152.2,0,199.1c0,8.5,5.7,14.2,14.2,14.2h227.6
		c8.5,0,14.2-5.7,14.2-14.2V28.4C256,19.9,250.3,14.2,241.8,14.2z M209.1,110.9l18.5-11.4v113.8H28.4V99.6L54,115.2L64,91L28.4,71.1
		V42.7h199.1v28.4l-29.9,15.6L209.1,110.9z M142.2,75.4c-4.3-2.8-15.6-5.7-19.9-1.4c-4.3,2.8-4.3,14.2,0,18.5c0,0,10,11.4,19.9,21.3
		H71.1v28.4h71.1l-22.8,21.3c-4.3,2.8-2.8,14.2,1.4,17.1c4.3,2.8,14.2,4.3,18.5,1.4l39.8-39.8c4.3-2.8,4.3-22.8,0-27L142.2,75.4z"/>
</g>
</svg>
