<?xml version="1.0" encoding="iso-8859-1"?>
<!-- Generator: Adobe Illustrator 19.2.1, SVG Export Plug-In . SVG Version: 6.00 Build 0)  -->
<svg version="1.1" id="Layer_1" xmlns="http://www.w3.org/2000/svg" xmlns:xlink="http://www.w3.org/1999/xlink" x="0px" y="0px"
	 viewBox="0 0 256 256" style="enable-background:new 0 0 256 256;" xml:space="preserve">
<g>
	<g>
		<defs>
			<rect id="SVGID_1_" x="0.006" y="0.986" width="255.749" height="256"/>
		</defs>
		<clipPath id="SVGID_2_">
			<use xlink:href="#SVGID_1_"  style="overflow:visible;"/>
		</clipPath>
		<path style="clip-path:url(#SVGID_2_);fill-rule:evenodd;clip-rule:evenodd;" d="M254.062,114.269
			c-0.403-3.583-4.579-6.278-8.191-6.278c-11.678,0-22.04-6.854-26.388-17.461c-4.436-10.862-1.574-23.527,7.126-31.509
			c2.74-2.505,3.075-6.7,0.778-9.612c-5.978-7.59-12.77-14.447-20.188-20.388c-2.903-2.328-7.168-2.004-9.687,0.784
			c-7.593,8.412-21.239,11.538-31.782,7.139c-10.968-4.616-17.89-15.733-17.21-27.666c0.222-3.75-2.519-7.01-6.255-7.445
			c-9.521-1.102-19.123-1.134-28.671-0.075c-3.69,0.408-6.432,3.589-6.306,7.293c0.411,11.817-6.589,22.738-17.452,27.188
			c-10.418,4.255-23.966,1.153-31.545-7.186c-2.505-2.746-6.696-3.084-9.617-0.806c-7.636,5.992-14.581,12.854-20.614,20.382
			c-2.352,2.927-2.004,7.168,0.76,9.682c8.871,8.034,11.732,20.809,7.125,31.797c-4.399,10.477-15.274,17.224-27.725,17.224
			c-4.042-0.129-6.918,2.584-7.362,6.26c-1.121,9.57-1.134,19.327-0.056,28.976c0.403,3.599,4.705,6.27,8.358,6.27
			c11.098-0.283,21.747,6.583,26.221,17.46c4.454,10.862,1.588,23.522-7.126,31.513c-2.727,2.505-3.075,6.69-0.773,9.599
			c5.917,7.542,12.714,14.404,20.155,20.396c2.921,2.352,7.167,2.023,9.7-0.769c7.626-8.431,21.267-11.552,31.768-7.144
			c11.001,4.603,17.919,15.72,17.243,27.656c-0.223,3.75,2.528,7.02,6.25,7.445c4.872,0.57,9.77,0.852,14.683,0.852
			c4.663,0,9.325-0.255,13.988-0.773c3.695-0.408,6.432-3.594,6.306-7.298c-0.426-11.812,6.589-22.734,17.438-27.175
			c10.488-4.283,23.976-1.147,31.56,7.177c2.519,2.742,6.682,3.075,9.617,0.806c7.622-5.978,14.554-12.835,20.614-20.382
			c2.352-2.922,2.019-7.168-0.76-9.687c-8.871-8.03-11.747-20.809-7.139-31.787c4.329-10.334,14.803-17.275,26.068-17.275
			l1.574,0.041c3.658,0.296,7.02-2.519,7.459-6.25C255.131,133.666,255.145,123.919,254.062,114.269L254.062,114.269z
			 M127.633,171.194c-23.439,0-42.501-19.067-42.501-42.505c0-23.439,19.063-42.506,42.501-42.506
			c23.442,0,42.505,19.067,42.505,42.506C170.139,152.126,151.076,171.194,127.633,171.194L127.633,171.194z M127.633,171.194"/>
	</g>
</g>
</svg>
