<?xml version="1.0" encoding="utf-8"?>
<!-- Generator: Adobe Illustrator 19.2.1, SVG Export Plug-In . SVG Version: 6.00 Build 0)  -->
<svg version="1.1" id="Layer_1" xmlns="http://www.w3.org/2000/svg" xmlns:xlink="http://www.w3.org/1999/xlink" x="0px" y="0px"
	 viewBox="0 0 256 256" style="enable-background:new 0 0 256 256;" xml:space="preserve">
<style type="text/css">
	.st0{fill:#FCC93A;}
</style>
<path class="st0" d="M218.9,54c-11.4,22.8-27,37-41.2,37c-19.9,0-38.4-27-41.2-91c-66.8,24.2-64,89.6-69.7,118
	c0,5.7-2.8,8.5-5.7,8.5c-11.4,0-35.6-28.4-44.1-52.6c-34.1,35.6-25.6,177.8,109.5,182c1.4,0,4.3,0,5.7,0
	C263,256,287.2,108.1,218.9,54z M221.7,169.2c-12.8,37-45.5,58.3-89.6,58.3c-1.4,0-2.8,0-4.3,0c-56.9-1.4-81.1-31.3-91-56.9
	c-4.3-10-7.1-19.9-8.5-29.9c10,8.5,19.9,14.2,31.3,14.2c14.2,0,31.3-10,34.1-31.3c0-4.3,1.4-8.5,1.4-14.2
	c4.3-22.8,8.5-44.1,19.9-59.7c14.2,61.2,48.4,69.7,64,69.7c14.2,0,28.4-5.7,41.2-18.5C228.8,120.9,230.3,146.5,221.7,169.2z"/>
</svg>
