<?xml version="1.0" encoding="iso-8859-1"?>
<!-- Generator: Adobe Illustrator 19.2.1, SVG Export Plug-In . SVG Version: 6.00 Build 0)  -->
<svg version="1.1" id="Layer_1" xmlns="http://www.w3.org/2000/svg" xmlns:xlink="http://www.w3.org/1999/xlink" x="0px" y="0px"
	 viewBox="0 0 256 256" style="enable-background:new 0 0 256 256;" xml:space="preserve">
<g>
	<g>
		<defs>
			<rect id="SVGID_1_" x="16.884" width="222.233" height="256"/>
		</defs>
		<clipPath id="SVGID_2_">
			<use xlink:href="#SVGID_1_"  style="overflow:visible;"/>
		</clipPath>
		<path style="clip-path:url(#SVGID_2_);" d="M79.393,255.752c-17.044-35.469-7.966-55.791,5.134-74.939
			c14.346-20.968,18.044-41.724,18.044-41.724s11.276,14.661,6.766,37.59c19.922-22.178,23.683-57.514,20.676-71.046
			c45.034,31.471,64.28,99.615,38.341,150.12c137.958-78.059,34.317-194.854,16.273-208.01c6.015,13.156,7.156,35.427-4.995,46.237
			C159.064,15.986,108.208,0,108.208,0c6.015,40.222-21.802,84.205-48.624,117.068c-0.944-16.039-1.944-27.105-10.378-42.454
			c-1.893,29.137-24.159,52.885-30.191,82.078C10.849,196.225,25.135,225.171,79.393,255.752L79.393,255.752z M79.393,255.752"/>
	</g>
</g>
</svg>
