<?xml version="1.0" encoding="iso-8859-1"?>
<!-- Generator: Adobe Illustrator 19.2.1, SVG Export Plug-In . SVG Version: 6.00 Build 0)  -->
<svg version="1.1" id="Layer_1" xmlns="http://www.w3.org/2000/svg" xmlns:xlink="http://www.w3.org/1999/xlink" x="0px" y="0px"
	 viewBox="0 0 256 256" style="enable-background:new 0 0 256 256;" xml:space="preserve">
<g>
	<path d="M61.439,181.755c-6.395,0-11.832,2.234-16.319,6.721c-4.477,4.477-6.711,9.915-6.711,16.319
		c0,6.407,2.234,11.844,6.711,16.321c4.487,4.477,9.924,6.721,16.319,6.721c6.301,0,11.709-2.244,16.245-6.721
		c4.534-4.477,6.797-9.915,6.797-16.321c0-6.404-2.263-11.842-6.797-16.319C73.148,183.998,67.74,181.755,61.439,181.755
		L61.439,181.755z M61.439,181.755"/>
	<path d="M56.328,133.119c0-7.048-2.511-13.069-7.526-18.084c-5.005-5.015-11.036-7.516-18.074-7.516
		c-7.04,0-13.071,2.501-18.086,7.516c-5.013,5.015-7.516,11.036-7.516,18.084c0,7.038,2.504,13.062,7.516,18.077
		c5.015,5.015,11.046,7.516,18.086,7.516c7.038,0,13.069-2.501,18.074-7.516C53.817,146.181,56.328,140.157,56.328,133.119
		L56.328,133.119z M56.328,133.119"/>
	<path d="M204.802,74.236c3.518,0,6.53-1.247,9.041-3.758c2.504-2.504,3.761-5.523,3.761-9.043c0-3.518-1.257-6.53-3.761-9.033
		c-2.511-2.511-5.523-3.768-9.041-3.768c-3.52,0-6.539,1.257-9.043,3.768c-2.501,2.504-3.758,5.516-3.758,9.033
		c0,3.53,1.257,6.539,3.758,9.043C198.263,72.989,201.282,74.236,204.802,74.236L204.802,74.236z M204.802,74.236"/>
	<path d="M61.449,33.281c-7.794,0-14.431,2.744-19.925,8.238c-5.494,5.494-8.236,12.129-8.236,19.915
		c0,7.796,2.742,14.431,8.236,19.925c5.494,5.496,12.139,8.238,19.925,8.238s14.422-2.742,19.918-8.238
		c5.494-5.494,8.236-12.139,8.236-19.925s-2.742-14.421-8.236-19.915C75.87,36.025,69.235,33.281,61.449,33.281L61.449,33.281z
		 M61.449,33.281"/>
	<path d="M246.397,122.238c-2.982-2.992-6.606-4.48-10.874-4.48c-4.266,0-7.899,1.488-10.882,4.48
		c-2.983,2.983-4.477,6.615-4.477,10.882c0,4.269,1.495,7.892,4.477,10.874c2.982,2.992,6.615,4.477,10.882,4.477
		c4.269,0,7.892-1.485,10.874-4.477c2.992-2.983,4.477-6.606,4.477-10.874C250.875,128.853,249.389,125.22,246.397,122.238
		L246.397,122.238z M246.397,122.238"/>
	<path d="M204.802,186.875c-4.909,0-9.129,1.755-12.649,5.273c-3.518,3.52-5.273,7.737-5.273,12.647
		c0,4.909,1.755,9.119,5.273,12.639c3.53,3.52,7.74,5.283,12.649,5.283c4.9,0,9.119-1.762,12.637-5.283
		c3.52-3.52,5.285-7.73,5.285-12.639c0-4.91-1.765-9.117-5.285-12.647C213.921,188.63,209.702,186.875,204.802,186.875
		L204.802,186.875z M204.802,186.875"/>
	<path d="M133.127,215.026c-5.658,0-10.482,2.005-14.49,6.004c-3.999,4.009-5.992,8.83-5.992,14.478
		c0,5.658,1.993,10.482,5.992,14.48c4.008,4.006,8.832,6.012,14.49,6.012c5.646,0,10.469-2.006,14.478-6.012
		c3.999-3.999,6.002-8.822,6.002-14.48c0-5.648-2.003-10.469-6.002-14.478C143.596,217.031,138.772,215.026,133.127,215.026
		L133.127,215.026z M133.127,215.026"/>
	<path d="M133.127,0c-8.535,0-15.794,2.982-21.768,8.955c-5.972,5.975-8.955,13.233-8.955,21.766c0,8.535,2.982,15.784,8.955,21.759
		c5.975,5.972,13.233,8.955,21.768,8.955c8.533,0,15.781-2.982,21.756-8.955c5.972-5.975,8.955-13.224,8.955-21.759
		c0-8.533-2.982-15.781-8.955-21.766C148.908,2.992,141.659,0,133.127,0L133.127,0z M133.127,0"/>
</g>
</svg>
