<?xml version="1.0" encoding="utf-8"?>
<!-- Generator: Adobe Illustrator 19.2.1, SVG Export Plug-In . SVG Version: 6.00 Build 0)  -->
<svg version="1.1" id="svgicon-mail--MainToolbar-MagicTag"
	 xmlns="http://www.w3.org/2000/svg" xmlns:xlink="http://www.w3.org/1999/xlink" x="0px" y="0px" viewBox="0 0 256 256"
	 style="enable-background:new 0 0 256 256;" xml:space="preserve">
<style type="text/css">
	.st0{fill:#5C9042;}
</style>
<path class="st0" d="M244.6,79.6L139.4,2.8C136.5,1.4,132.3,0,128,0s-8.5,1.4-11.4,2.8L11.4,79.6C5.7,83.9,0,93.9,0,102.4v140.8
	c0,7.1,7.1,12.8,14.2,12.8h227.6c7.1,0,14.2-5.7,14.2-12.8V102.4C256,93.9,250.3,83.9,244.6,79.6z M227.6,227.6H28.4V103.8v-1.4
	L128,29.9l99.6,72.5v1.4V227.6z M139.4,136.5L128,113.8l-11.4,22.8L91,140.8l18.5,18.5l-4.3,25.6l22.8-14.2l22.8,14.2l-4.3-25.6
	l18.5-18.5L139.4,136.5z"/>
</svg>
