<?xml version="1.0" encoding="iso-8859-1"?>
<!-- Generator: Adobe Illustrator 19.2.1, SVG Export Plug-In . SVG Version: 6.00 Build 0)  -->
<svg version="1.1" id="Layer_1" xmlns="http://www.w3.org/2000/svg" xmlns:xlink="http://www.w3.org/1999/xlink" x="0px" y="0px"
	 viewBox="0 0 256 256" style="enable-background:new 0 0 256 256;" xml:space="preserve">
<g>
	<path d="M31.988,239.981c0,6.48,3.899,12.339,9.839,14.759c2.04,0.859,4.06,1.26,6.179,1.26c4.139,0,8.199-1.64,11.319-4.699
		L128,182.646l68.654,68.655c3.06,3.059,7.2,4.699,11.339,4.699c2.02,0,4.14-0.4,6.08-1.26c6.019-2.42,9.939-8.279,9.939-14.759
		V47.956H31.988V239.981z M31.988,239.981"/>
	<path d="M207.993,0H48.006c-8.84,0-16.019,7.18-16.019,16.019v16.019h192.025V16.019C224.012,7.18,216.813,0,207.993,0L207.993,0z
		 M207.993,0"/>
</g>
</svg>
