<?xml version="1.0" encoding="utf-8"?>
<!-- Generator: Adobe Illustrator 19.2.1, SVG Export Plug-In . SVG Version: 6.00 Build 0)  -->
<svg version="1.1" id="cke_svgicon--bold-ru" xmlns="http://www.w3.org/2000/svg" xmlns:xlink="http://www.w3.org/1999/xlink"
	 x="0px" y="0px" viewBox="0 0 256 256" style="enable-background:new 0 0 256 256;" xml:space="preserve">
<path d="M179.6,122.3l70.7-89.8c-13.4,0-24.8,0-38.2,0c-1.9,1.9-66.9,87.9-68.8,89.8c0-30.6,0-61.1,0-89.8l0,0c-9.6,0-21,0-30.6,0
	l0,0c0,30.6,0,61.1,0,89.8c-1.9-1.9-66.9-87.9-68.8-89.8c-13.4,0-24.8,0-38.2,0l70.7,89.8C74.5,124.2,0,221.6,0,223.5
	c13.4,0,24.8,0,38.2,0c19.1-26.7,38.2-53.5,59.2-80.2c5.7,5.7,9.6,13.4,15.3,19.1c0,19.1,0,40.1,0,61.1l0,0c9.6,0,21,0,30.6,0l0,0
	c0-21,0-40.1,0-61.1c5.7-7.6,9.6-13.4,15.3-19.1c19.1,26.7,38.2,53.5,59.2,80.2c13.4,0,24.8,0,38.2,0
	C256,223.5,179.6,124.2,179.6,122.3z"/>
</svg>
