<?xml version="1.0" encoding="utf-8"?>
<!-- Generator: Adobe Illustrator 19.2.1, SVG Export Plug-In . SVG Version: 6.00 Build 0)  -->
<svg version="1.1" id="Layer_1" xmlns="http://www.w3.org/2000/svg" xmlns:xlink="http://www.w3.org/1999/xlink" x="0px" y="0px"
	 viewBox="0 0 256 256" style="enable-background:new 0 0 256 256;" xml:space="preserve">
<style type="text/css">
	.st0{fill:#5C9042;}
</style>
<path class="st0" d="M241.8,28.4c-8.5,0-14.2,5.7-14.2,14.2v170.7c0,8.5-5.7,14.2-14.2,14.2h-185v-28.4h142.2
	c15.6,0,28.4-12.8,28.4-28.4V28.4C199,12.8,186.2,0,170.6,0H28.4C12.8,0,0,12.8,0,28.4v199.1C0,243.2,12.8,256,28.4,256h199.1
	c15.6,0,28.4-12.8,28.4-28.4V42.7C256,34.1,250.3,28.4,241.8,28.4z M28.4,42.7c0-7.1,7.1-14.2,14.2-14.2h113.8
	c7.1,0,14.2,7.1,14.2,14.2v113.8c0,7.1-7.1,14.2-14.2,14.2H42.7c-7.1,0-14.2-7.1-14.2-14.2V42.7H28.4z M58.3,130.8
	c10,8.5,25.6,12.8,42.7,12.8s39.8-10,42.7-12.8c-10-7.1-27-7.1-29.9-14.2c0-2.8,0-5.7,0-8.5c1.4-1.4,5.7-5.7,5.7-10
	c1.4,0,4.3-1.4,4.3-5.7c0-2.8-1.4-4.3-1.4-4.3c2.8-5.7,7.1-24.2-10-25.6c-1.4-2.8-5.7-4.3-11.4-4.3c-22.8,0-25.6,14.2-21.3,29.9
	c-1.4,0-2.8,1.4-1.4,4.3c0,4.3,2.8,5.7,4.3,5.7c0,4.3,4.3,10,5.7,10c0,2.8,0,5.7,0,8.5C85.3,123.7,68.3,123.7,58.3,130.8z"/>
</svg>
