<?xml version="1.0" encoding="iso-8859-1"?>
<!-- Generator: Adobe Illustrator 19.2.1, SVG Export Plug-In . SVG Version: 6.00 Build 0)  -->
<svg version="1.1" id="Layer_1" xmlns="http://www.w3.org/2000/svg" xmlns:xlink="http://www.w3.org/1999/xlink" x="0px" y="0px"
	 viewBox="0 0 256 256" style="enable-background:new 0 0 256 256;" xml:space="preserve">
<g>
	<path d="M166.021,0H27.728v256h200.544V62.229L166.021,0z M74.667,59.728h42.667c2.352,0,4.272,1.92,4.272,4.272
		c0,2.352-1.92,4.272-4.272,4.272H74.667c-2.357,0-4.272-1.92-4.272-4.272C70.395,61.648,72.309,59.728,74.667,59.728L74.667,59.728
		z M181.333,204.789H74.667c-2.357,0-4.272-1.893-4.272-4.245c0-2.379,1.915-4.272,4.272-4.272h106.667
		c2.352,0,4.272,1.893,4.272,4.272C185.605,202.896,183.685,204.789,181.333,204.789L181.333,204.789z M181.333,170.667H74.667
		c-2.357,0-4.272-1.915-4.272-4.272c0-2.352,1.915-4.272,4.272-4.272h106.667c2.352,0,4.272,1.92,4.272,4.272
		C185.605,168.752,183.685,170.667,181.333,170.667L181.333,170.667z M181.333,136.544H74.667c-2.357,0-4.272-1.92-4.272-4.272
		c0-2.357,1.915-4.272,4.272-4.272h106.667c2.352,0,4.272,1.915,4.272,4.272C185.605,134.624,183.685,136.544,181.333,136.544
		L181.333,136.544z M181.333,102.395H74.667c-2.357,0-4.272-1.893-4.272-4.272c0-2.352,1.915-4.245,4.272-4.245h106.667
		c2.352,0,4.272,1.893,4.272,4.245C185.605,100.501,183.685,102.395,181.333,102.395L181.333,102.395z M160,68.272V8.544
		l59.728,59.728H160z M160,68.272"/>
</g>
</svg>
