<?xml version="1.0" encoding="utf-8"?>
<!-- Generator: Adobe Illustrator 19.2.1, SVG Export Plug-In . SVG Version: 6.00 Build 0)  -->
<svg version="1.1" id="cke_svgicon--emoticons" xmlns="http://www.w3.org/2000/svg" xmlns:xlink="http://www.w3.org/1999/xlink"
	 x="0px" y="0px" viewBox="0 0 256 256" style="enable-background:new 0 0 256 256;" xml:space="preserve">
<path d="M128,0C57.6,0,0,57.6,0,128s57.6,128,128,128s128-57.6,128-128S200,0,128,0z M128,232c-57.6,0-104-46.4-104-104
	S70.4,24,128,24s104,46.4,104,104S185.6,232,128,232z M88,128c12.8,0,24-11.2,24-24s-9.6-24-24-24s-24,11.2-24,24S75.2,128,88,128z
	 M168,128c24,0,24-16,24-16V96h-32v16h-16C144,112,144,128,168,128z M128,184c-28.8,0-57.6-28.8-57.6-30.4l-11.2,11.2
	c1.6,1.6,35.2,33.6,70.4,33.6s68.8-33.6,70.4-33.6l-11.2-11.2C187.2,155.2,156.8,184,128,184z"/>
</svg>
