<?xml version="1.0" encoding="utf-8"?>
<!-- Generator: Adobe Illustrator 19.2.1, SVG Export Plug-In . SVG Version: 6.00 Build 0)  -->
<svg version="1.1" id="Layer_1" xmlns="http://www.w3.org/2000/svg" xmlns:xlink="http://www.w3.org/1999/xlink" x="0px" y="0px"
	 viewBox="0 0 256 256" style="enable-background:new 0 0 256 256;" xml:space="preserve">
<g>
	<path d="M256,249.3V6.7c0-3.7-3-6.7-6.7-6.7h-76.8c-3.7,0-6.7,3-6.7,6.7v17.7c0,3.7,3,6.7,6.7,6.7h52.4v193.9H31.1V31.1h52.4
		c3.7,0,6.7-3,6.7-6.7V6.7c0-3.7-3-6.7-6.7-6.7H6.7C3,0,0,3,0,6.7v242.7c0,3.7,3,6.7,6.7,6.7h242.7C253,256,256,253,256,249.3
		L256,249.3z"/>
	<path d="M136.9,15.9h-17.7c-3.7,0-6.7,3-6.7,6.7v95.6L82.3,88.1c-1.2-1.2-2.9-2-4.7-2c-1.8,0-3.4,0.7-4.7,2l-12.6,12.5
		c-1.2,1.2-2,2.9-2,4.7s0.7,3.4,2,4.7l62.9,62.9c1.2,1.2,2.9,2,4.7,2c1.8,0,3.4-0.7,4.7-2l62.9-62.9c1.2-1.2,2-2.9,2-4.7
		s-0.7-3.4-2-4.7L183,88.1c-2.6-2.6-6.8-2.6-9.4,0l-30.2,30.2V22.5C143.5,18.9,140.5,15.9,136.9,15.9L136.9,15.9z"/>
</g>
</svg>
