<?xml version="1.0" encoding="utf-8"?>
<!-- Generator: Adobe Illustrator 19.2.1, SVG Export Plug-In . SVG Version: 6.00 Build 0)  -->
<svg version="1.1" id="cke_svgicon--link" xmlns="http://www.w3.org/2000/svg" xmlns:xlink="http://www.w3.org/1999/xlink" x="0px"
	 y="0px" viewBox="0 0 256 256" style="enable-background:new 0 0 256 256;" xml:space="preserve">
<path d="M119.3,169c1.6,3.2,1.6,6.4,1.6,8c0,6.4-1.6,11.2-6.4,16.1l-32.1,32.1c-4.8,4.8-9.6,6.4-16.1,6.4S55,230,50.2,225.2
	l-22.5-22.5c-4.8-4.8-6.4-9.6-6.4-16.1s1.6-11.2,6.4-16.1l32.1-32.1c4.8-4.8,9.6-6.4,16.1-6.4c3.2,0,6.4,0,8,1.6l17.7-17.7
	c-4.8-3.2-14.5-6.4-24.1-6.4c-11.2,0-24.1,4.8-32.1,12.8l-32.1,32.1c-17.7,17.7-17.7,48.2,0,65.9l22.5,22.5
	c9.6,9.6,20.9,12.8,32.1,12.8s24.1-4.8,32.1-12.8l32.1-32.1c16.1-16.1,17.7-41.8,4.8-59.4L119.3,169z M242.9,35.6l-22.5-22.5
	c-9.6-9.6-20.9-12.8-32.1-12.8c-11.2,0-24.1,4.8-32.1,12.8l-32.1,32.1c-16.1,16.1-17.7,41.8-4.8,59.4L136.9,87
	c-3.2-1.6-3.2-4.8-3.2-8c0-6.4,1.6-11.2,6.4-16.1l32.1-32.1c4.8-4.8,9.6-6.4,16.1-6.4s11.2,1.6,16.1,6.4l22.5,22.5
	c4.8,4.8,6.4,9.6,6.4,16.1c0,6.4-1.6,11.2-6.4,16.1l-32.1,32.1c-4.8,4.8-9.6,6.4-16.1,6.4c-3.2,0-6.4,0-8-1.6l-20.9,16.1
	c8,6.4,17.7,8,27.3,8c11.2,0,24.1-4.8,32.1-12.8l32.1-32.1C260.6,83.8,260.6,54.9,242.9,35.6z M82.3,183.4l98-98l-8-8l-98,98
	L82.3,183.4z"/>
</svg>
