<?xml version="1.0" encoding="iso-8859-1"?>
<!-- Generator: Adobe Illustrator 19.2.1, SVG Export Plug-In . SVG Version: 6.00 Build 0)  -->
<svg version="1.1" id="Layer_1" xmlns="http://www.w3.org/2000/svg" xmlns:xlink="http://www.w3.org/1999/xlink" x="0px" y="0px"
	 viewBox="0 0 256 256" style="enable-background:new 0 0 256 256;" xml:space="preserve">
<g>
	<path d="M204.538,133.307c-8.049-10.095-17.151-15.149-27.312-15.149V39.39c5.339,0,9.949-1.954,13.851-5.847
		c3.899-3.899,5.844-8.519,5.844-13.848c0-5.339-1.945-9.949-5.844-13.848C187.175,1.947,182.565,0,177.226,0H78.774
		c-5.339,0-9.959,1.947-13.851,5.847c-3.899,3.899-5.844,8.509-5.844,13.848c0,5.33,1.945,9.949,5.844,13.848
		c3.892,3.892,8.511,5.847,13.851,5.847v78.768c-10.161,0-19.263,5.053-27.312,15.149c-8.049,10.105-12.078,21.465-12.078,34.077
		c0,2.665,0.977,4.98,2.922,6.925c1.954,1.945,4.261,2.922,6.925,2.922h62.154l11.691,74.621c0.517,2.764,2.157,4.147,4.924,4.147
		h0.156c1.227,0,2.278-0.432,3.154-1.298c0.866-0.876,1.411-1.928,1.614-3.163l7.846-74.307h65.999c2.665,0,4.978-0.977,6.925-2.922
		c1.945-1.945,2.922-4.26,2.922-6.925C216.616,154.773,212.587,143.412,204.538,133.307L204.538,133.307z M113.229,113.235
		c0,1.437-0.46,2.611-1.383,3.541c-0.921,0.923-2.101,1.383-3.541,1.383c-1.428,0-2.608-0.46-3.541-1.383
		c-0.921-0.923-1.383-2.103-1.383-3.541V44.314c0-1.44,0.463-2.62,1.383-3.541c0.932-0.923,2.113-1.383,3.541-1.383
		c1.44,0,2.62,0.46,3.541,1.383c0.923,0.921,1.383,2.101,1.383,3.541V113.235z M113.229,113.235"/>
</g>
</svg>
