<?xml version="1.0" encoding="utf-8"?>
<!-- Generator: Adobe Illustrator 19.2.1, SVG Export Plug-In . SVG Version: 6.00 Build 0)  -->
<svg version="1.1" id="Layer_1" xmlns="http://www.w3.org/2000/svg" xmlns:xlink="http://www.w3.org/1999/xlink" x="0px" y="0px"
	 viewBox="0 0 256 256" style="enable-background:new 0 0 256 256;" xml:space="preserve">
<style type="text/css">
	.st0{fill:#5C9042;}
</style>
<path class="st0" d="M128,0C57.3,0,0,57.3,0,128s57.3,128,128,128s128-57.3,128-128S198.7,0,128,0z M128,228
	c-55.2,0-100-44.8-100-100C28,72.8,72.8,28,128,28s100,44.8,100,100C228,183.2,183.2,228,128,228z M142.3,113.7v-70h-28.5v70h-70
	v28.5h70v70h28.5v-70h70v-28.5H142.3z"/>
</svg>
