<?xml version="1.0" encoding="iso-8859-1"?>
<!-- Generator: Adobe Illustrator 19.2.1, SVG Export Plug-In . SVG Version: 6.00 Build 0)  -->
<svg version="1.1" id="Layer_1" xmlns="http://www.w3.org/2000/svg" xmlns:xlink="http://www.w3.org/1999/xlink" x="0px" y="0px"
	 viewBox="0 0 256 256" style="enable-background:new 0 0 256 256;" xml:space="preserve">
<g>
	<g>
		<path d="M3.366,120.12c-4.746,4.749-4.221,12.132,0,16.351c3.69,3.693,87.025,86.497,87.025,86.497
			c7.383,7.386,19.513,1.584,19.513-7.911v-40.082h10.024c33.226,0,91.771,5.8,114.449,45.884c2.109,3.693,5.802,5.802,10.02,5.802
			c6.858,0,11.605-5.802,11.605-11.605c0-2.109,0-53.796-39.029-92.824c-25.843-25.846-61.71-39.557-107.069-41.668V41.006
			c0-9.492-12.129-15.823-19.513-8.437L3.366,120.12L3.366,120.12z M27.628,128.031l59.069-59.597v23.206
			c0,6.33,5.274,11.604,11.605,11.604c83.859,0,115.505,42.722,127.634,75.421c-32.698-22.678-77.529-26.899-106.009-26.899
			c-13.714,0-22.153,1.056-22.681,1.056c-5.802,0.527-10.548,5.802-10.548,11.604v22.678L27.628,128.031z M86.697,187.103"/>
	</g>
</g>
</svg>
