<?xml version="1.0" encoding="utf-8"?>
<!-- Generator: Adobe Illustrator 19.2.1, SVG Export Plug-In . SVG Version: 6.00 Build 0)  -->
<svg version="1.1" id="Layer_1" xmlns="http://www.w3.org/2000/svg" xmlns:xlink="http://www.w3.org/1999/xlink" x="0px" y="0px"
	 viewBox="0 0 256 256" style="enable-background:new 0 0 256 256;" xml:space="preserve">
<style type="text/css">
	.st0{fill:#86BA82;}
</style>
<path class="st0" d="M28.4,127.9c0-34.1,17.1-64,42.7-81.1V71c0,7.1,5.7,14.2,14.2,14.2S99.6,78.1,99.6,71V14.1
	c0-4.3-1.4-7.1-4.3-10l0,0c-2.8-2.8-5.7-4.3-10-4.3H28.4c-8.5,0-14.2,5.7-14.2,14.2s7.1,14.2,14.2,14.2h19.9
	C18.5,52.5,0,88.1,0,127.9c0,71.1,56.9,128,128,128v-28.4C72.5,227.5,28.4,183.4,28.4,127.9z M227.6,227.5h-19.9
	c28.4-24.2,48.4-59.7,48.4-99.6c0-71.1-56.9-128-128-128v28.4c55.5,0,99.6,44.1,99.6,99.6c0,34.1-17.1,64-42.7,81.1v-24.2
	c0-7.1-5.7-14.2-14.2-14.2s-14.2,7.1-14.2,14.2v56.9c0,4.3,1.4,7.1,4.3,10l0,0c2.8,2.8,5.7,4.3,10,4.3h56.9
	c7.1,0,14.2-5.7,14.2-14.2C241.8,233.1,234.7,227.5,227.6,227.5z"/>
</svg>
