<?xml version="1.0" encoding="utf-8"?>
<!-- Generator: Adobe Illustrator 19.2.1, SVG Export Plug-In . SVG Version: 6.00 Build 0)  -->
<svg version="1.1" id="Layer_1" xmlns="http://www.w3.org/2000/svg" xmlns:xlink="http://www.w3.org/1999/xlink" x="0px" y="0px"
	 viewBox="0 0 256 256" style="enable-background:new 0 0 256 256;" xml:space="preserve">
<style type="text/css">
	.st0{fill:#859DC6;}
</style>
<path class="st0" d="M128,85.2c-24.2,0-42.7,19.9-42.7,42.7s18.5,42.7,42.7,42.7s42.7-18.5,42.7-42.7S152.2,85.2,128,85.2z
	 M128,142.1c-8.5,0-14.2-5.7-14.2-14.2c0-7.1,5.7-14.2,14.2-14.2s14.2,5.7,14.2,14.2S136.5,142.1,128,142.1z M244.6,79.5L139.4,2.7
	c-2.8-1.4-7.1-2.8-11.4-2.8c-4.3,0-8.5,1.4-11.4,2.8L11.4,79.5C5.7,83.8,0,93.8,0,102.3v139.4c0,7.1,5.7,14.2,14.2,14.2h227.6
	c7.1,0,14.2-5.7,14.2-14.2V102.3C256,93.8,250.3,83.8,244.6,79.5z M227.6,227.5H28.4V102.3v-1.4L128,29.8l99.6,71.1v1.4V227.5z"/>
</svg>
