<?xml version="1.0" encoding="utf-8"?>
<!-- Generator: Adobe Illustrator 19.2.1, SVG Export Plug-In . SVG Version: 6.00 Build 0)  -->
<svg version="1.1" id="cke_svgicon--unlink" xmlns="http://www.w3.org/2000/svg" xmlns:xlink="http://www.w3.org/1999/xlink"
	 x="0px" y="0px" viewBox="0 0 256 256" style="enable-background:new 0 0 256 256;" xml:space="preserve">
<path d="M241.6,35.2l-22.4-22.4C209.6,3.2,198.4,0,187.2,0s-24,4.8-32,12.8l-32,32c-4.8,4.8-8,8-9.6,11.2l19.2,19.2
	c0-4.8,3.2-8,4.8-11.2l32-32c4.8-4.8,9.6-6.4,16-6.4s11.2,1.6,16,6.4L224,54.4c4.8,4.8,6.4,9.6,6.4,16s-1.6,11.2-6.4,16l-32,32
	c-3.2,3.2-8,4.8-11.2,4.8l19.2,19.2c3.2-1.6,6.4-4.8,9.6-8l32-32C259.2,83.2,259.2,52.8,241.6,35.2z M116.8,192l-32,32
	c-4.8,4.8-9.6,6.4-16,6.4s-11.2-1.6-16-6.4l-22.4-22.4c-4.8-4.8-6.4-9.6-6.4-16s1.6-11.2,6.4-16l32-32c1.6-1.6,3.2-1.6,4.8-3.2
	L49.6,120c0,0-1.6,1.6-3.2,3.2l-32,32c-17.6,17.6-17.6,48,0,65.6l22.4,22.4c9.6,9.6,20.8,12.8,32,12.8s24-4.8,32-12.8l32-32
	c1.6-1.6,1.6-3.2,3.2-4.8l-17.6-17.6C118.4,188.8,116.8,190.4,116.8,192z"/>
</svg>
