<?xml version="1.0" encoding="utf-8"?>
<!-- Generator: Adobe Illustrator 16.2.0, SVG Export Plug-In . SVG Version: 6.00 Build 0)  -->
<!DOCTYPE svg PUBLIC "-//W3C//DTD SVG 1.1//EN" "http://www.w3.org/Graphics/SVG/1.1/DTD/svg11.dtd">
<svg version="1.1" id="Layer_1" xmlns="http://www.w3.org/2000/svg" xmlns:xlink="http://www.w3.org/1999/xlink" x="0px" y="0px"
	 width="175px" height="35px" viewBox="0 0 175 35" enable-background="new 0 0 175 35" xml:space="preserve">
<g>
	<path fill="#FF0000" d="M35.784,10.414c0-4.814-3.822-8.459-8.46-8.459H1.948v24.319c0,2.92,2.367,5.287,5.287,5.287h28.549V10.414
		z"/>
	<path fill="#FFFFFF" d="M56.13,7.242c-1.037,0-1.771,0.833-1.771,1.637v0.627c-1.617-1.386-3.716-2.258-5.988-2.258
		c-4.998-0.006-9.414,4.231-9.414,9.524c0,4.865,4.205,9.502,9.414,9.502c2.102,0,4.369-0.818,5.977-2.196l0.008,0.448
		c0,0.87,0.678,1.748,1.785,1.748c1.275,0,1.849-1.009,1.849-1.823V8.979C57.994,8.25,57.204,7.242,56.13,7.242L56.13,7.242z
		 M48.358,22.754c-3.287,0-5.959-2.681-5.959-6.001c0-3.315,2.672-5.999,5.959-5.999c3.301,0,5.973,2.684,5.973,5.999
		C54.326,20.073,51.655,22.754,48.358,22.754L48.358,22.754z"/>
	<path fill="#FFFFFF" d="M121.711,7.242c-1.037,0-1.771,0.833-1.771,1.637v0.627c-1.617-1.386-3.717-2.258-5.988-2.258
		c-4.998-0.006-9.414,4.231-9.414,9.524c0,4.865,4.205,9.502,9.414,9.502c2.102,0,4.369-0.818,5.977-2.196l0.008,0.448
		c0,0.87,0.678,1.748,1.785,1.748c1.275,0,1.848-1.009,1.848-1.823V8.979C123.574,8.25,122.785,7.242,121.711,7.242L121.711,7.242z
		 M113.939,22.754c-3.287,0-5.959-2.681-5.959-6.001c0-3.315,2.672-5.999,5.959-5.999c3.301,0,5.973,2.684,5.973,5.999
		C119.906,20.073,117.236,22.754,113.939,22.754L113.939,22.754z"/>
	<g>
		<path fill="#FFFFFF" d="M65.389,24.159c0,1.17-0.948,2.115-2.113,2.115l0,0c-1.17,0-2.116-0.945-2.116-2.115V9.356
			c0-1.167,0.946-2.114,2.116-2.114l0,0c1.165,0,2.113,0.947,2.113,2.114V24.159z"/>
		<path fill="#FFFFFF" d="M65.389,4.07c0,1.168-0.948,2.114-2.113,2.114c-1.17,0-2.116-0.946-2.116-2.114
			c0-1.167,0.946-2.115,2.116-2.115C64.44,1.955,65.389,2.903,65.389,4.07z"/>
	</g>
	<path fill="#FFFFFF" d="M72.791,24.159c0,1.17-0.947,2.115-2.115,2.115l0,0c-1.168,0-2.113-0.945-2.113-2.115V4.07
		c0-1.167,0.945-2.115,2.113-2.115l0,0c1.168,0,2.115,0.948,2.115,2.115V24.159z"/>
	<circle fill="#FFFFFF" cx="78.079" cy="24.159" r="2.116"/>
	<path fill="#FFFFFF" d="M21.497,16.556v6.936c0,0.927-0.213,1.622-0.634,2.087c-0.421,0.466-0.979,0.696-1.671,0.696
		c-0.673,0-1.217-0.23-1.635-0.696c-0.416-0.465-0.622-1.16-0.622-2.087V15.39c0-1.111-0.04-1.977-0.114-2.593
		c-0.076-0.614-0.283-1.119-0.617-1.513c-0.337-0.396-0.867-0.591-1.592-0.591c-1.45,0-2.407,0.495-2.865,1.489
		c-0.46,0.993-0.689,2.42-0.689,4.276v7.032c0,0.916-0.208,1.609-0.625,2.079c-0.418,0.469-0.968,0.704-1.648,0.704
		c-0.671,0-1.221-0.235-1.648-0.704c-0.428-0.47-0.642-1.163-0.642-2.079V9.787c0-0.833,0.192-1.465,0.577-1.896
		c0.383-0.433,0.891-0.649,1.52-0.649c0.604,0,1.109,0.202,1.517,0.607c0.405,0.405,0.608,0.964,0.608,1.676v0.422
		c0.77-0.918,1.592-1.592,2.467-2.024c0.879-0.432,1.852-0.648,2.924-0.648c1.113,0,2.072,0.222,2.874,0.666
		c0.8,0.441,1.462,1.11,1.979,2.007c0.748-0.907,1.549-1.578,2.404-2.017c0.854-0.437,1.803-0.656,2.842-0.656
		c1.211,0,2.257,0.237,3.132,0.713c0.876,0.475,1.53,1.157,1.965,2.04c0.38,0.8,0.567,2.058,0.567,3.775v9.688
		c0,0.927-0.21,1.622-0.633,2.087c-0.423,0.466-0.98,0.696-1.672,0.696c-0.671,0-1.221-0.235-1.647-0.704
		c-0.429-0.47-0.641-1.163-0.641-2.079V15c0-0.949-0.042-1.712-0.122-2.283c-0.083-0.572-0.301-1.054-0.658-1.441
		c-0.358-0.389-0.898-0.582-1.624-0.582c-0.583,0-1.14,0.171-1.665,0.518c-0.523,0.345-0.932,0.81-1.224,1.393
		C21.659,13.349,21.497,14.666,21.497,16.556z"/>
	<path fill="#FFFFFF" d="M101.727,10.704v13.553c0,1.55-0.166,2.882-0.496,3.999c-0.332,1.116-0.861,2.039-1.59,2.769
		c-0.729,0.729-1.684,1.271-2.863,1.623c-1.178,0.354-2.646,0.53-4.4,0.53c-1.605,0-3.041-0.226-4.307-0.675
		c-1.264-0.45-2.238-1.031-2.922-1.743c-0.684-0.713-1.025-1.444-1.025-2.196c0-0.57,0.193-1.034,0.582-1.393
		c0.387-0.359,0.854-0.539,1.4-0.539c0.684,0,1.281,0.302,1.795,0.906c0.25,0.308,0.51,0.618,0.777,0.932
		c0.268,0.313,0.564,0.581,0.889,0.803c0.324,0.223,0.715,0.388,1.17,0.496c0.455,0.107,0.98,0.162,1.572,0.162
		c1.207,0,2.145-0.168,2.813-0.504c0.666-0.337,1.133-0.807,1.4-1.41c0.268-0.604,0.424-1.251,0.471-1.939
		c0.045-0.689,0.078-1.797,0.102-3.324c-0.717,1.003-1.547,1.767-2.486,2.29c-0.939,0.524-2.059,0.786-3.357,0.786
		c-1.563,0-2.926-0.398-4.094-1.196c-1.168-0.797-2.064-1.914-2.691-3.35s-0.939-3.093-0.939-4.974c0-1.4,0.189-2.666,0.572-3.793
		c0.381-1.129,0.926-2.079,1.633-2.854c0.705-0.774,1.52-1.358,2.443-1.752c0.922-0.393,1.936-0.589,3.041-0.589
		c1.322,0,2.467,0.253,3.436,0.76c0.969,0.508,1.869,1.302,2.701,2.385V9.833c0-0.809,0.197-1.436,0.598-1.88
		c0.398-0.444,0.91-0.667,1.537-0.667c0.9,0,1.498,0.294,1.795,0.881S101.727,9.6,101.727,10.704z M88.207,16.618
		c0,1.891,0.414,3.321,1.24,4.289c0.824,0.969,1.893,1.453,3.203,1.453c0.775,0,1.508-0.208,2.197-0.624
		c0.688-0.416,1.25-1.043,1.684-1.88c0.432-0.838,0.648-1.854,0.648-3.051c0-1.902-0.418-3.384-1.256-4.443s-1.939-1.59-3.307-1.59
		c-1.334,0-2.402,0.508-3.205,1.521C88.609,13.309,88.207,14.749,88.207,16.618z"/>
	<path fill="#FFFFFF" d="M142.887,17.113v6.204c0,0.979-0.223,1.715-0.666,2.204c-0.445,0.489-1.031,0.735-1.762,0.735
		c-0.705,0-1.277-0.246-1.717-0.735s-0.658-1.225-0.658-2.204v-7.435c0-1.173-0.039-2.085-0.119-2.734s-0.297-1.182-0.65-1.598
		c-0.352-0.416-0.91-0.624-1.674-0.624c-1.527,0-2.533,0.524-3.016,1.572c-0.484,1.049-0.727,2.553-0.727,4.512v6.307
		c0,0.968-0.221,1.7-0.658,2.195c-0.439,0.496-1.018,0.744-1.734,0.744c-0.707,0-1.285-0.248-1.734-0.744
		c-0.451-0.495-0.676-1.228-0.676-2.195V9.97c0-0.877,0.201-1.544,0.607-2c0.404-0.455,0.936-0.684,1.598-0.684
		c0.637,0,1.17,0.214,1.598,0.642c0.428,0.427,0.641,1.017,0.641,1.769v0.444c0.809-0.968,1.674-1.681,2.598-2.136
		c0.922-0.456,1.947-0.684,3.076-0.684c1.174,0,2.182,0.233,3.025,0.7c0.842,0.468,1.537,1.174,2.084,2.119
		c0.787-0.957,1.629-1.666,2.529-2.128c0.9-0.461,1.896-0.691,2.99-0.691c1.277,0,2.377,0.25,3.299,0.752
		c0.924,0.501,1.613,1.219,2.068,2.152c0.398,0.844,0.598,2.171,0.598,3.982v9.109c0,0.979-0.223,1.715-0.666,2.204
		c-0.445,0.489-1.031,0.735-1.76,0.735c-0.707,0-1.285-0.248-1.734-0.744c-0.451-0.495-0.676-1.228-0.676-2.195v-7.845
		c0-1.002-0.043-1.806-0.129-2.409c-0.084-0.604-0.316-1.111-0.691-1.521c-0.377-0.41-0.945-0.615-1.709-0.615
		c-0.615,0-1.199,0.183-1.752,0.547c-0.553,0.365-0.982,0.854-1.291,1.47C143.057,13.729,142.887,15.12,142.887,17.113z"/>
	<path fill="#FFFFFF" d="M170.357,17.917h-9.125c0.012,1.059,0.225,1.993,0.641,2.803c0.416,0.809,0.969,1.418,1.658,1.828
		s1.449,0.615,2.281,0.615c0.559,0,1.068-0.065,1.529-0.196s0.908-0.336,1.342-0.615s0.832-0.578,1.195-0.897
		c0.365-0.318,0.838-0.752,1.42-1.299c0.238-0.205,0.58-0.308,1.025-0.308c0.479,0,0.865,0.131,1.162,0.394
		c0.295,0.262,0.443,0.632,0.443,1.11c0,0.422-0.164,0.914-0.496,1.479c-0.33,0.563-0.828,1.105-1.494,1.623
		c-0.666,0.519-1.504,0.948-2.512,1.29c-1.01,0.342-2.168,0.514-3.479,0.514c-2.996,0-5.326-0.855-6.99-2.564
		s-2.494-4.026-2.494-6.955c0-1.378,0.205-2.657,0.615-3.837c0.41-1.179,1.008-2.189,1.793-3.033
		c0.787-0.843,1.756-1.489,2.906-1.939s2.426-0.675,3.828-0.675c1.822,0,3.387,0.384,4.691,1.153
		c1.305,0.769,2.281,1.763,2.93,2.981c0.65,1.22,0.975,2.461,0.975,3.727c0,1.173-0.336,1.934-1.008,2.281
		S171.578,17.917,170.357,17.917z M161.232,15.268h8.459c-0.113-1.595-0.543-2.788-1.289-3.58c-0.748-0.792-1.73-1.188-2.949-1.188
		c-1.162,0-2.115,0.402-2.861,1.205C161.844,12.508,161.393,13.695,161.232,15.268z"/>
</g>
</svg>
