<?xml version="1.0" encoding="utf-8"?>
<!-- Generator: Adobe Illustrator 22.0.1, SVG Export Plug-In . SVG Version: 6.00 Build 0)  -->
<svg version="1.1" id="Layer_1" xmlns="http://www.w3.org/2000/svg" xmlns:xlink="http://www.w3.org/1999/xlink" x="0px" y="0px"
	 viewBox="0 0 80 80" style="enable-background:new 0 0 80 80;" xml:space="preserve">
<style type="text/css">
	.st0{fill:#F3F5F7;}
	.st1{fill:#EDEDED;}
	.st2{fill:#FFFFFF;}
	.st3{fill:#FF0000;}
	.st4{fill:#333333;}
	.st5{fill:#EAEAEA;stroke:#C6C6C6;stroke-width:0.25;stroke-miterlimit:10;}
	.st6{fill:#FFEBEB;}
	.st7{fill:#C9C9C9;}
	.st8{fill:#DBDBDB;}
	.st9{fill:#AEE2FF;}
	.st10{fill:#85FFC2;}
	.st11{fill:#FFE799;}
	.st12{fill:#FF3E3E;}
	.st13{fill:#D1E5DD;}
	.st14{fill:#B79A9A;}
	.st15{fill:#FFBDF6;}
	.st16{fill:#D9F98C;}
	.st17{fill:#F4F4F4;}
	.st18{fill:#FEEEFF;}
	.st19{fill:#F2F2F2;stroke:#DBDBDB;stroke-width:0.25;stroke-miterlimit:10;}
	.st20{fill:#DD1D1D;}
	.st21{fill:#B4C1CC;}
	.st22{fill:#E9EFF4;}
</style>
<rect class="st0" width="20.9" height="80"/>
<rect y="9.1" class="st1" width="80" height="0.5"/>
<rect y="0" class="st2" width="80" height="9.1"/>
<g>
	<path class="st3" d="M5.5,3.8c0-0.4-0.3-0.7-0.7-0.7h-2V5c0,0.2,0.2,0.4,0.4,0.4h2.2V3.8z"/>
	<path class="st4" d="M7.1,3.5C7,3.5,6.9,3.6,6.9,3.6v0C6.8,3.6,6.7,3.5,6.5,3.5c-0.4,0-0.7,0.3-0.7,0.7C5.7,4.6,6.1,5,6.5,5
		c0.2,0,0.3-0.1,0.5-0.2l0,0C6.9,4.9,7,5,7.1,5c0.1,0,0.1-0.1,0.1-0.1V3.7C7.2,3.6,7.2,3.5,7.1,3.5L7.1,3.5z M6.5,4.7
		C6.2,4.7,6,4.5,6,4.3C6,4,6.2,3.8,6.5,3.8c0.3,0,0.5,0.2,0.5,0.5C6.9,4.5,6.7,4.7,6.5,4.7L6.5,4.7z"/>
	<g>
		<path class="st4" d="M7.8,4.8C7.8,4.9,7.7,5,7.6,5l0,0C7.5,5,7.5,4.9,7.5,4.8V3.7c0-0.1,0.1-0.2,0.2-0.2l0,0
			c0.1,0,0.2,0.1,0.2,0.2V4.8z"/>
		<circle class="st4" cx="7.6" cy="3.3" r="0.2"/>
	</g>
	<path class="st4" d="M8.4,4.8C8.4,4.9,8.3,5,8.2,5l0,0C8.1,5,8.1,4.9,8.1,4.8V3.3c0-0.1,0.1-0.2,0.2-0.2l0,0c0.1,0,0.2,0.1,0.2,0.2
		V4.8z"/>
	<circle class="st4" cx="8.8" cy="4.8" r="0.2"/>
	<path class="st2" d="M4.4,4.2v0.5c0,0.1,0,0.1,0,0.2C4.3,5,4.2,5,4.2,5C4.1,5,4.1,5,4.1,5c0,0,0-0.1,0-0.2V4.2C4,4.1,4,4,4,4
		c0,0,0-0.1,0-0.1c0,0-0.1,0-0.1,0c-0.1,0-0.2,0-0.2,0.1c0,0.1-0.1,0.2-0.1,0.3v0.5c0,0.1,0,0.1,0,0.2C3.5,5,3.4,5,3.4,5
		C3.3,5,3.3,5,3.3,5S3.2,4.9,3.2,4.8V3.7c0-0.1,0-0.1,0-0.1c0,0,0.1-0.1,0.1-0.1c0,0,0.1,0,0.1,0c0,0,0,0.1,0,0.1v0
		c0.1-0.1,0.1-0.1,0.2-0.2c0.1,0,0.1-0.1,0.2-0.1c0.1,0,0.2,0,0.2,0.1c0.1,0,0.1,0.1,0.2,0.2c0.1-0.1,0.1-0.1,0.2-0.2
		s0.1-0.1,0.2-0.1c0.1,0,0.2,0,0.2,0.1c0.1,0,0.1,0.1,0.2,0.2c0,0.1,0,0.2,0,0.3v0.8c0,0.1,0,0.1,0,0.2C5.1,5,5.1,5,5,5
		C5,5,4.9,5,4.9,5S4.8,4.9,4.8,4.8V4.1c0-0.1,0-0.1,0-0.2c0,0,0-0.1-0.1-0.1c0,0-0.1,0-0.1,0c0,0-0.1,0-0.1,0c0,0-0.1,0.1-0.1,0.1
		C4.4,4,4.4,4.1,4.4,4.2z"/>
	<g>
		<path class="st4" d="M10.3,3.7c0,0,0-0.1,0.1-0.1c0.1,0,0.1,0.1,0.1,0.2v1c0,0.2,0,0.3,0,0.4c-0.1,0.3-0.5,0.3-0.6,0.3
			c-0.5,0-0.6-0.3-0.6-0.3c0,0,0-0.1,0.1-0.1c0.1,0,0.1,0,0.1,0.1c0,0.1,0.1,0.1,0.3,0.1c0.2,0,0.3-0.1,0.4-0.2
			c0.1-0.1,0.1-0.2,0.1-0.4C10.2,4.8,10,4.9,9.8,4.9c-0.5,0-0.6-0.6-0.6-0.7c0-0.3,0.2-0.7,0.6-0.7c0.3,0,0.4,0.2,0.5,0.2V3.7z
			 M10.2,4.2c0-0.3-0.2-0.5-0.4-0.5c-0.1,0-0.4,0.1-0.4,0.5c0,0.4,0.2,0.5,0.4,0.5C10,4.7,10.2,4.6,10.2,4.2z"/>
		<path class="st4" d="M10.9,3.7c0-0.1,0-0.1,0.1-0.1c0.1,0,0.1,0.1,0.1,0.1v0.1c0.1-0.1,0.2-0.2,0.3-0.2c0.1,0,0.3,0.1,0.3,0.2
			c0,0.1-0.1,0.1-0.1,0.1c-0.1,0-0.1,0-0.2,0c-0.2,0-0.3,0.3-0.3,0.6v0.5c0,0.1-0.1,0.1-0.1,0.1c0,0-0.1,0-0.1,0c0,0,0-0.1,0-0.2
			C10.9,4.7,10.9,3.7,10.9,3.7z"/>
		<path class="st4" d="M12.4,4.9c-0.4,0-0.6-0.3-0.6-0.7c0-0.5,0.2-0.7,0.6-0.7c0.3,0,0.6,0.2,0.6,0.7C13,4.7,12.7,4.9,12.4,4.9z
			 M12.4,3.7c-0.3,0-0.4,0.2-0.4,0.5c0,0.3,0.1,0.5,0.4,0.5c0.3,0,0.4-0.2,0.4-0.5C12.8,3.9,12.6,3.7,12.4,3.7z"/>
		<path class="st4" d="M13.3,3.7c0-0.1,0-0.1,0-0.2c0,0,0,0,0.1,0c0,0,0.1,0,0.1,0c0,0,0,0.1,0,0.2v0.6c0,0.1,0,0.2,0,0.3
			c0.1,0.1,0.1,0.1,0.2,0.1c0.1,0,0.3-0.1,0.3-0.2c0-0.1,0.1-0.1,0.1-0.4V3.7c0-0.1,0-0.1,0-0.2c0,0,0,0,0.1,0c0,0,0.1,0,0.1,0
			c0,0,0,0.1,0,0.2v1c0,0.1,0,0.1,0,0.1c0,0,0,0-0.1,0c0,0-0.1,0-0.1,0c0,0,0-0.1,0-0.2c-0.1,0.1-0.2,0.2-0.4,0.2
			c-0.1,0-0.3-0.1-0.4-0.2c-0.1-0.1-0.1-0.2-0.1-0.3C13.3,4.4,13.3,3.7,13.3,3.7z"/>
		<path class="st4" d="M15.4,3.5C15.9,3.5,16,4,16,4.2c0,0.3-0.1,0.7-0.6,0.7c-0.3,0-0.4-0.2-0.5-0.2v0.6c0,0.1,0,0.2-0.1,0.2
			c-0.1,0-0.1-0.1-0.1-0.2V3.7c0-0.1,0-0.1,0-0.1c0,0,0,0,0.1,0C15,3.5,15,3.6,15,3.7v0.1C15,3.7,15.2,3.5,15.4,3.5z M15,4.2
			c0,0.5,0.3,0.5,0.4,0.5c0.2,0,0.4-0.2,0.4-0.5c0-0.4-0.2-0.5-0.4-0.5C15.2,3.7,15,3.8,15,4.2z"/>
	</g>
</g>
<circle class="st5" cx="75.1" cy="4.7" r="2.4"/>
<g>
	<rect x="20.9" y="15.6" class="st2" width="59.1" height="5.3"/>
	<rect x="20.9" y="21.1" class="st1" width="59.1" height="0.3"/>
	<circle class="st6" cx="23.8" cy="18.3" r="1.4"/>
	<rect x="26.8" y="17.8" class="st7" width="10" height="0.9"/>
	<rect x="74.3" y="17.8" class="st8" width="1.4" height="0.9"/>
	<rect x="38.2" y="17.8" class="st7" width="32.6" height="0.9"/>
</g>
<g>
	<rect x="20.9" y="21.5" class="st2" width="59.1" height="5.3"/>
	<rect x="20.9" y="27" class="st1" width="59.1" height="0.3"/>
	<circle class="st9" cx="23.8" cy="24.1" r="1.4"/>
	<rect x="26.8" y="23.7" class="st7" width="8" height="0.9"/>
	<rect x="74.3" y="23.7" class="st8" width="1.4" height="0.9"/>
	<rect x="38.2" y="23.7" class="st7" width="26.8" height="0.9"/>
</g>
<g>
	<rect x="20.9" y="27.3" class="st2" width="59.1" height="5.3"/>
	<rect x="20.9" y="32.8" class="st1" width="59.1" height="0.3"/>
	<circle class="st10" cx="23.8" cy="30" r="1.4"/>
	<rect x="26.8" y="29.5" class="st7" width="10" height="0.9"/>
	<rect x="74.3" y="29.5" class="st8" width="1.4" height="0.9"/>
	<rect x="38.2" y="29.5" class="st7" width="27.3" height="0.9"/>
</g>
<g>
	<rect x="20.9" y="33.2" class="st2" width="59.1" height="5.3"/>
	<rect x="20.9" y="38.7" class="st1" width="59.1" height="0.3"/>
	<circle class="st11" cx="23.8" cy="35.8" r="1.4"/>
	<rect x="26.8" y="35.4" class="st7" width="6.8" height="0.9"/>
	<rect x="74.3" y="35.4" class="st8" width="1.4" height="0.9"/>
	<rect x="38.2" y="35.4" class="st7" width="30.5" height="0.9"/>
</g>
<g>
	<rect x="20.9" y="39" class="st2" width="59.1" height="5.3"/>
	<rect x="20.9" y="44.6" class="st1" width="59.1" height="0.3"/>
	<circle class="st12" cx="23.8" cy="41.7" r="1.4"/>
	<rect x="26.8" y="41.2" class="st7" width="8.8" height="0.9"/>
	<rect x="74.3" y="41.2" class="st8" width="1.4" height="0.9"/>
	<rect x="38.2" y="41.2" class="st7" width="32.6" height="0.9"/>
</g>
<g>
	<rect x="20.9" y="44.9" class="st2" width="59.1" height="5.3"/>
	<rect x="20.9" y="50.4" class="st1" width="59.1" height="0.3"/>
	<circle class="st13" cx="23.8" cy="47.5" r="1.4"/>
	<rect x="26.8" y="47.1" class="st7" width="7" height="0.9"/>
	<rect x="74.3" y="47.1" class="st8" width="1.4" height="0.9"/>
	<rect x="38.2" y="47.1" class="st7" width="30" height="0.9"/>
</g>
<g>
	<rect x="20.9" y="50.7" class="st2" width="59.1" height="5.3"/>
	<rect x="20.9" y="56.3" class="st1" width="59.1" height="0.3"/>
	<circle class="st14" cx="23.8" cy="53.4" r="1.4"/>
	<rect x="26.8" y="52.9" class="st7" width="8" height="0.9"/>
	<rect x="74.3" y="52.9" class="st8" width="1.4" height="0.9"/>
	<rect x="38.2" y="52.9" class="st7" width="29.2" height="0.9"/>
</g>
<g>
	<rect x="20.9" y="56.6" class="st2" width="59.1" height="5.3"/>
	<rect x="20.9" y="62.1" class="st1" width="59.1" height="0.3"/>
	<circle class="st15" cx="23.8" cy="59.2" r="1.4"/>
	<rect x="26.8" y="58.8" class="st7" width="5.8" height="0.9"/>
	<rect x="74.3" y="58.8" class="st8" width="1.4" height="0.9"/>
	<rect x="38.2" y="58.8" class="st7" width="32.6" height="0.9"/>
</g>
<g>
	<rect x="20.9" y="62.4" class="st2" width="59.1" height="5.3"/>
	<rect x="20.9" y="68" class="st1" width="59.1" height="0.3"/>
	<circle class="st16" cx="23.8" cy="65.1" r="1.4"/>
	<rect x="26.8" y="64.6" class="st7" width="10" height="0.9"/>
	<rect x="74.3" y="64.6" class="st8" width="1.4" height="0.9"/>
	<rect x="38.2" y="64.6" class="st7" width="27.7" height="0.9"/>
</g>
<g>
	<rect x="20.9" y="68.3" class="st2" width="59.1" height="5.3"/>
	<rect x="20.9" y="73.8" class="st1" width="59.1" height="0.3"/>
	<circle class="st17" cx="23.8" cy="70.9" r="1.4"/>
	<rect x="26.8" y="70.5" class="st7" width="8.2" height="0.9"/>
	<rect x="74.3" y="70.5" class="st8" width="1.4" height="0.9"/>
	<rect x="38.2" y="70.5" class="st7" width="30.3" height="0.9"/>
</g>
<g>
	<rect x="20.9" y="74.1" class="st2" width="59.1" height="5.3"/>
	<rect x="20.9" y="79.7" class="st1" width="59.1" height="0.3"/>
	<circle class="st18" cx="23.8" cy="76.8" r="1.4"/>
	<rect x="26.8" y="76.3" class="st7" width="10" height="0.9"/>
	<rect x="74.3" y="76.3" class="st8" width="1.4" height="0.9"/>
	<rect x="38.2" y="76.3" class="st7" width="32.6" height="0.9"/>
</g>
<rect x="32.1" y="3.4" class="st19" width="37.2" height="2.8"/>
<rect x="20.9" y="3.2" class="st20" width="8.6" height="3"/>
<rect x="60.8" y="3.2" class="st8" width="8.6" height="3"/>
<g>
	<rect x="2" y="12.2" class="st21" width="2.2" height="2.2"/>
	<rect x="5.8" y="12.8" class="st21" width="12.3" height="1"/>
</g>
<g>
	<rect x="2" y="17" class="st21" width="2.2" height="2.2"/>
	<rect x="5.8" y="17.6" class="st21" width="12.3" height="1"/>
</g>
<g>
	<rect x="2" y="21.6" class="st21" width="2.2" height="2.2"/>
	<rect x="5.8" y="22.2" class="st21" width="12.3" height="1"/>
</g>
<g>
	<rect x="2" y="26.2" class="st21" width="2.2" height="2.2"/>
	<rect x="5.8" y="26.8" class="st21" width="12.3" height="1"/>
</g>
<g>
	<rect x="2" y="31.3" class="st21" width="2.2" height="2.2"/>
	<rect x="5.8" y="31.9" class="st21" width="12.3" height="1"/>
</g>
<rect x="20.9" y="9.7" class="st2" width="59.1" height="5.9"/>
<rect x="20.9" y="15.3" class="st22" width="59.1" height="0.3"/>
<rect x="22.9" y="11.4" class="st22" width="2.5" height="2.2"/>
<rect x="26.4" y="11.9" class="st22" width="6.3" height="1.2"/>
<rect x="35.6" y="11.4" class="st22" width="2.5" height="2.2"/>
<rect x="39" y="11.9" class="st22" width="6.3" height="1.2"/>
<rect x="48.2" y="11.4" class="st22" width="2.5" height="2.2"/>
<rect x="51.7" y="11.9" class="st22" width="6.3" height="1.2"/>
<rect x="73.3" y="11.9" class="st22" width="3.7" height="1.2"/>
</svg>
