<?xml version="1.0" encoding="utf-8"?>
<!-- Generator: Adobe Illustrator 16.2.0, SVG Export Plug-In . SVG Version: 6.00 Build 0)  -->
<!DOCTYPE svg PUBLIC "-//W3C//DTD SVG 1.1//EN" "http://www.w3.org/Graphics/SVG/1.1/DTD/svg11.dtd">
<svg version="1.1" id="Слой_1" xmlns="http://www.w3.org/2000/svg" xmlns:xlink="http://www.w3.org/1999/xlink" x="0px" y="0px"
	 width="18px" height="18px" viewBox="0 0 18 18" enable-background="new 0 0 18 18" xml:space="preserve">
<g>
	<rect x="7.43" y="4.561" fill="#333333" width="1.134" height="7.885"/>
	<path fill="#333333" d="M11.318,3.049c0,0.43-1.135,0.483-1.135,0c0-1.226-0.81-1.975-2.024-1.975
		c-1.338,0-2.025,0.749-2.025,1.975c0,0.467-1.134,0.512-1.134,0C5,1.823,5.831,0,8.159,0C10.697,0,11.318,1.823,11.318,3.049z"/>
	<path fill="#333333" d="M7.43,12.434c0-0.429,1.134-0.482,1.134,0c0,0.431,0.306,0.698,0.811,0.698c0.451,0,0.81-0.26,0.81-0.698
		c0-0.467,1.135-0.512,1.135,0c0,0.702-0.566,1.772-1.944,1.772C7.997,14.206,7.43,13.136,7.43,12.434z"/>
	<path fill="#333333" d="M5,13.717c0-0.43,1.134-0.483,1.134,0c0,1.957,1.296,3.209,3.24,3.209s3.239-1.252,3.239-3.209
		c0-0.468,1.135-0.513,1.135,0c0,1.957-1.135,4.283-4.374,4.283C6.134,18,5,15.674,5,13.717z"/>
	<rect x="10.184" y="3.049" fill="#333333" width="1.135" height="9.397"/>
	<rect x="5" y="3.049" fill="#333333" width="1.134" height="10.909"/>
	<rect x="12.613" y="4.561" fill="#333333" width="1.135" height="9.397"/>
</g>
</svg>
